<svg id="b78985cf-0ab8-47bd-8b17-657de1f378f5" data-name="Layer 3" xmlns="http://www.w3.org/2000/svg" width="259.34" height="259.34" viewBox="0 0 259.34 259.34">
  <title>africa</title>
  <g>
    <polygon points="86.87 100.54 86.88 100.54 86.87 100.52 86.87 100.54" fill="#d1d3d4"/>
    <path d="M87,99.39a8.46,8.46,0,0,0,1.76,0,1.87,1.87,0,0,1,1.38,0,1,1,0,0,0,.7.16H91c.25,0,.47.75,0,.83a9,9,0,0,1-1.65-.19c-.45,0-.81.34-1.09.35H86.87A1.73,1.73,0,0,1,87,100a1.64,1.64,0,0,0,0-.62" fill="#d1d3d4"/>
    <path d="M91.52,101.23H90.25a4,4,0,0,0-1.06.21,4,4,0,0,1-1,.21c-.47,0-.32,0-.42,0s-.74,0-.74,0a5.58,5.58,0,0,0,.9.7c.26.11.79.08.86.33a1.59,1.59,0,0,0,.29.81c.28.38.43.39.43.39s.33-.86.73-.94a4.55,4.55,0,0,1,.89-.14c.26,0,.36.06.38-.13s-.07-.41-.07-.65.08-.85.08-.85" fill="#d1d3d4"/>
    <path d="M75.26,110c-.33-.4.07-.87-.22-1.38a2.39,2.39,0,0,1-.31-1,6.74,6.74,0,0,1-1.38-1.25c-.43-.6-.6-1.29-.95-1.38a1.75,1.75,0,0,1-1.12-.52,1.36,1.36,0,0,0-1.42-.56c-.77.09-.82.3-1.38.26a5.56,5.56,0,0,0-1.12,0l-.12,1.17a5.48,5.48,0,0,1-1.14,1.83c-.3.23-.16.3.15.68a3.7,3.7,0,0,1,.6,1.35,9.68,9.68,0,0,0,2-.05,2.17,2.17,0,0,1,1.6,0,1.21,1.21,0,0,0,.81.19h.2c.29,0,.54.87.05,1a10.5,10.5,0,0,1-1.92-.22c-.52,0-.94.39-1.26.41s-1.63,0-1.64,0,0,.2,0,.26.15,1.09.15,1.09.73,0,.86-.05-.06,0,.49,0a4.62,4.62,0,0,0,1.17-.24,4.63,4.63,0,0,1,1.22-.24h.55a5.92,5.92,0,0,1,2.35.28A6.72,6.72,0,0,0,76,112l.09-.4c.15-.65-.54-1.12-.87-1.52" fill="#d1d3d4"/>
    <path d="M172.58,113.78c.11.73-2.39,1.77-2.46.51s1.41-3.11,2.06-2.75,1,1,.4,1.2-1.3.83-1,.83.94-.25,1,.22" fill="#d1d3d4"/>
    <path d="M156.82,76.46s.84,2.71.84,3a7,7,0,0,1-.52,1.29c-.21.6-.3,1.81-.95,1.59s-1.68-2.15-1.89-3-.43-1.77-.82-1.81-.6.17-.6.43a14.33,14.33,0,0,0,1.55,4.78c.95,1.33,1.51,1.59,1.68,2.58a20.36,20.36,0,0,0,1.55,3.4c.82,1.29,1.08,1.72,1,1.9a2.12,2.12,0,0,0,.3,1.51,6.2,6.2,0,0,0-1.33,1c-.26.39-1.08,1.51-1.72,1.46a4.81,4.81,0,0,1-1.25-.43l-2.71,0-11.54.17-.09-13.65a5.16,5.16,0,0,1-.3-2.33c.26-.69.09-1.68.26-2l.3-.52s1.51.17,2.11.22A30.4,30.4,0,0,1,147,77.23c.56.26,1.12-.09,2.24-.65a5.52,5.52,0,0,1,3.1-.52c.6.13.56.77,1.42.86a13.77,13.77,0,0,0,3-.47" fill="#d1d3d4"/>
    <path d="M140.62,75.85l-.3.52c-.17.3,0,1.29-.26,2a5.16,5.16,0,0,0,.3,2.33l.09,13.65-.09,3.53-1.81.13-.09.56-14-6.93L121.24,93,120,92.17l-2.67-.6s0-1.12-1.64-1.81-2.8-2.46-2.37-3.92a11,11,0,0,0,.43-3.62,8.08,8.08,0,0,0-.77-2.8.44.44,0,0,1,.26-.73,1.38,1.38,0,0,0,1.08-.95c.09-.56-.26-1.42.17-1.77s2.15-1.12,2.2-1.51-.09-1.25.09-1.29.82.43,1.42.47a3.85,3.85,0,0,0,.6,0,5.11,5.11,0,0,1,2.2.24c1.51.47,2.45.56,2.37.95a1.83,1.83,0,0,0,.47,1.77c.6.47,1.89.13,2.71.43s2.84,1.81,3.88,1.64,1.85-1.42,1.64-1.94-.9-1.38.13-2.2a4.11,4.11,0,0,1,3.75-.82c1,.47.22.77,1.12,1.08s1.76,0,2.37.3a5.54,5.54,0,0,1,1.21.77" fill="#d1d3d4"/>
    <path d="M116.76,73.19a5.16,5.16,0,0,1-.09,1.29c0,.39-1.77,1.16-2.2,1.51s-.09,1.21-.17,1.76a1.38,1.38,0,0,1-1.08.95A11.85,11.85,0,0,1,112.5,76c0-.82-.82-1.42-1.21-1.77s-.3-1-.73-1.29-1-1.12-.82-1.51.77-.56,1.08-1.42-.09-3.32,0-3.74.43-.52.56-.65a5.27,5.27,0,0,1,2-.9,1.77,1.77,0,0,1,.95.65.5.5,0,0,0,.78.17c.39-.26.73-.21.73.09s-.82.95-.9,1.42,1.08,1.12.95,1.64a3.62,3.62,0,0,1-1.25,1.72c-.56.39-.73.56-.43,1.12s2.45,1.51,2.54,1.68" fill="#d1d3d4"/>
    <path d="M117.32,91.57s0-1.12-1.64-1.81-2.8-2.45-2.37-3.92a11,11,0,0,0,.43-3.62,8.08,8.08,0,0,0-.78-2.8.44.44,0,0,1,.26-.73A11.86,11.86,0,0,1,112.5,76c0-.82-.82-1.42-1.21-1.77s-.3-1-.73-1.29-1-1.12-.82-1.51.77-.56,1.08-1.42-.09-3.32,0-3.75.43-.52.56-.65a7.1,7.1,0,0,1-1.85-.08,1.05,1.05,0,0,0-.64,0,1.85,1.85,0,0,1-.57,0,19.09,19.09,0,0,0-2.58.56,4.61,4.61,0,0,1-1.06-.17,9.6,9.6,0,0,0-4.79.3c-3.53,1-3.4,1.68-3.92,1.68a3.65,3.65,0,0,0-1.81.73,7.62,7.62,0,0,1-1.94.73,1.69,1.69,0,0,1,.86,1.29c0,.86.13,2.54.78,3.06A.87.87,0,0,1,94.07,75c-.21.17-.52.13-1.51,0a5.07,5.07,0,0,0-2.76.86c-.26.26.47,1.47-.26,1.59a6.64,6.64,0,0,0-2.93,1.72c-.9.9-3.1.78-3.49.86a9,9,0,0,0-2.28,2.11c0,.26,0,2.33,0,2.33L98.34,96a2.53,2.53,0,0,0,1.72,1.64c1.38.39,2,.39,1.9,1s-.26,1.25.56,1.16,4.26-.82,4.26-.82l2.8-2.8,7.75-4.57" fill="#d1d3d4"/>
    <path d="M92.26,69.31a1.69,1.69,0,0,1,.86,1.29c0,.86.13,2.54.77,3.06A.87.87,0,0,1,94.07,75c-.21.17-.52.13-1.51,0a5.07,5.07,0,0,0-2.76.86c-.26.26.47,1.46-.26,1.59a6.64,6.64,0,0,0-2.93,1.72c-.9.9-3.1.78-3.49.86a9,9,0,0,0-2.28,2.11c0,.26,0,1.64,0,1.64l-7.75,0a1.36,1.36,0,0,1,.95-.73,4.15,4.15,0,0,0,2.8-1.29c1-1.08,2.84-2.84,2.46-3.36a2.24,2.24,0,0,1,0-2.54c.65-.9.86-.86.86-1.29A2.06,2.06,0,0,1,81,73a10.2,10.2,0,0,1,2.24-1.16,2.66,2.66,0,0,0,1.59-1.42c.39-.82.86-2.28,1-2.37s.86-.3.9-.08a3.39,3.39,0,0,0,1.46,1.16c.39,0,1.94-.09,2.24-.09s1.81.26,1.81.26" fill="#d1d3d4"/>
    <path d="M80.85,83.82l-7.75,0s-.47,1.81-1,2a4.54,4.54,0,0,0-1.12.56,3.91,3.91,0,0,0-.82,2.15c0,.65,0,.73-.56,1.25a6.28,6.28,0,0,0-1.55,2.37,3.87,3.87,0,0,1-1,1.68,2.09,2.09,0,0,0-.65,1.64h6.67a13.66,13.66,0,0,0,0-2.24c-.13-.56.6-1.08,1.08-1.21a3.36,3.36,0,0,0,.9-.43L75.17,87l5.6-.09.09-3.14" fill="#d1d3d4"/>
    <path d="M102.46,99.75c-.82.09-.65-.56-.56-1.16s-.52-.6-1.89-1A2.53,2.53,0,0,1,98.28,96L87.23,88.72h-.09l-2.54,0,1.77,15.33a.56.56,0,0,1,.43.77c-.17.69-.26,1.29-.26,1.29H79.69s-1.51.13-1.89.09-.6.52-.78.52-.56-.73-.95-.73-.65.43-.6.86-.73.78-.73.78a2.39,2.39,0,0,0,.31,1c.29.51-.11,1,.22,1.38s1,.87.87,1.52-.25.83.18.94,2.79.25,3-.07.22-1.09.65-.94a4,4,0,0,1,1.27,2,4.29,4.29,0,0,0,.36,1.27c.25.62.33,1,.69,1a11.87,11.87,0,0,0,2.21-.15,2.49,2.49,0,0,1,1.27,0c.54.07.72-.4.8-.94s.47-2,1.27-2.32.8-2,1.3-2.14a1.1,1.1,0,0,1,.44,0,1.18,1.18,0,0,0,1.18-.41c.83-.76.83-1.3,1.81-1.59s2.46-1.3,2.79-1.3a6,6,0,0,0,2.35.11,3.61,3.61,0,0,1,2-.61c1.12,0,2.75.18,3.26-.69a3.72,3.72,0,0,0,.72-2.68c0-1.67,0-3.51,0-3.51l-1.23.24" fill="#d1d3d4"/>
    <path d="M66.39,95.45h6.67a13.66,13.66,0,0,0,0-2.24c-.13-.56.6-1.08,1.08-1.21a3.36,3.36,0,0,0,.9-.43L75.17,87l5.6-.09,0-2.33,6.33,4.09-2.54,0,1.77,15.33a.56.56,0,0,1,.43.78c-.17.69-.26,1.29-.26,1.29H79.69s-1.51.13-1.89.09-.6.52-.78.52-.56-.73-.95-.73-.65.43-.6.86-.73.77-.73.77a6.74,6.74,0,0,1-1.38-1.25c-.43-.6-.6-1.29-.95-1.38a1.75,1.75,0,0,1-1.12-.52,1.36,1.36,0,0,0-1.42-.56c-.78.09-.82.3-1.38.26a5.57,5.57,0,0,0-1.12,0,14.67,14.67,0,0,0,.65-2.58c0-.65-.95-2.24-.73-2.58a1.35,1.35,0,0,0,.22-1.55,14.49,14.49,0,0,0-1.12-2.11" fill="#d1d3d4"/>
    <path d="M82.33,115.77c-.36,0-.44-.4-.69-1a4.29,4.29,0,0,1-.36-1.27,4,4,0,0,0-1.27-2c-.44-.14-.4.62-.65.94s-2.61.18-3,.07-.35-.2-.28-.53h0a6.72,6.72,0,0,1-2.5-.27s-1.15-.24-1.43-.27c0,0-.1.71-.1,1s.1.53.08.75-.14.15-.44.15a5.18,5.18,0,0,0-1,.16c-.46.09-.84,1.09-.84,1.09A16.83,16.83,0,0,0,71,115.73c.36.27,1.07.69,1.12.94a4.52,4.52,0,0,0,.81,1.22,14.63,14.63,0,0,1,1.21-1.18c.5-.41,2-1,2.77,0s.73,1.22.71,1.32-.23.8-.07.88a2,2,0,0,0,.65,0,3.24,3.24,0,0,1,.77,0,.86.86,0,0,1,.62.88c0,.43,0,.91.37,1a.58.58,0,0,0,.48-.19.59.59,0,0,1,.53-.18c.43.11.71.45.88,0,0,0,.48-.64,0-1.11s.34-.51.51-.83.34-.59-.32-1.25.29-1.44.29-1.44" fill="#d1d3d4"/>
    <path d="M78,119a1.11,1.11,0,0,1-.43,0c-.16-.08,0-.79.07-.88s0-.23-.71-1.32-2.27-.45-2.77,0A14.63,14.63,0,0,0,73,117.89s.18.88.3,1.37a2.31,2.31,0,0,0,1.54,1.54,3.55,3.55,0,0,1,1.35.74s1.07-1.16,1.37-1.57a8.33,8.33,0,0,0,.49-1" fill="#d1d3d4"/>
    <path d="M76.15,121.54s1.07-1.15,1.37-1.57a8.33,8.33,0,0,0,.49-1h.09a4,4,0,0,1,.9,0,.86.86,0,0,1,.62.88c0,.43,0,.91.37,1a.58.58,0,0,0,.48-.19.59.59,0,0,1,.53-.18l.61.22c.22.07.12.62.1.82-.07.49-.6.79-.07,1.13s1.68.84,1.51,1.58a8.77,8.77,0,0,0-.2,1.78,13,13,0,0,1-3.17-1.39c-.47-.49-2.89-2.44-3.63-3" fill="#d1d3d4"/>
    <path d="M82.33,115.77a11.88,11.88,0,0,0,2.21-.14,2.49,2.49,0,0,1,1.27,0s.44,0,.52-.15.91.28,1,.42.56.9,1,.91a2.64,2.64,0,0,0,.77-.18,2.58,2.58,0,0,1,1-.17,2.1,2.1,0,0,1,1.22.63,14.13,14.13,0,0,1,.46,2.4,5.13,5.13,0,0,0-1,2.78c.11,1.18.29,1.29.5,1.56a1.35,1.35,0,0,1,.12.86,23.62,23.62,0,0,1-2.36-.18,15.46,15.46,0,0,0-4.18.79l-1.89.66a8.77,8.77,0,0,1,.2-1.78c.18-.73-1-1.24-1.51-1.58s0-.64.07-1.13c0-.2.12-.74-.1-.82l.27-.23s.48-.64,0-1.11.34-.51.51-.83.34-.59-.32-1.25.29-1.44.29-1.44" fill="#d1d3d4"/>
    <path d="M91.32,117a2.89,2.89,0,0,0,0-1.53,1,1,0,0,1,0-1.07,33.93,33.93,0,0,1,3.52,0,.47.47,0,0,0,.53,0,.53.53,0,0,1,.65-.07,1.56,1.56,0,0,1,.12.56c.05.52.54,1.12.52,1.64a7.43,7.43,0,0,0,.45,1.79,13.81,13.81,0,0,1,.23,2.83c0,.66.93,1.75.93,1.75a1.19,1.19,0,0,1-.27.41c-.21.23-.25.29-.93.29s-1.47.73-2.18.86a17.94,17.94,0,0,0-2.2.86,7.91,7.91,0,0,1-1.3-.69,1.35,1.35,0,0,0-.12-.86c-.22-.27-.39-.38-.5-1.56a5.13,5.13,0,0,1,1-2.78,14.13,14.13,0,0,0-.46-2.4" fill="#d1d3d4"/>
    <path d="M98.26,122.92s-.95-1.09-.93-1.75a13.81,13.81,0,0,0-.23-2.83,7.43,7.43,0,0,1-.45-1.79c0-.52-.47-1.13-.52-1.64a1.56,1.56,0,0,0-.12-.56l0,0c.14.1.28.06.45,0a1.12,1.12,0,0,1,.43,0c.42,0,.87.14,1,.11s-.22.88-.12,1,.92.53.92.83a3.49,3.49,0,0,0,.23,1.39,2.62,2.62,0,0,1,.26,1.63,31.53,31.53,0,0,0,.18,3.29l-1.08.37" fill="#d1d3d4"/>
    <path d="M99.35,122.55a31.53,31.53,0,0,1-.18-3.29,2.62,2.62,0,0,0-.26-1.63,3.49,3.49,0,0,1-.23-1.39c0-.3-.83-.73-.92-.83s.12-1,.12-1,.75-.77,1-.79a5.69,5.69,0,0,0,1-.1c.18-.07.71-.6.65-.72a1.13,1.13,0,0,0,.36-.35c.2-.27.51-.45.82-.22s1,.81.9.89a1.17,1.17,0,0,0,.2,1.12c.38.42.14,1.52-.42,2.35s-.22,1-.58,1.1-.62.69-.6,1.59,0,3,.06,3a12.7,12.7,0,0,1-1.87.17" fill="#d1d3d4"/>
    <path d="M122.54,92.47l-1.3.56L120,92.17l-2.67-.6-7.75,4.57-2.8,2.8s-1.44.3-2.68.55l-.4,0s0,1.85,0,3.51a3.72,3.72,0,0,1-.72,2.68c-.51.87-2.14.69-3.26.69a3.61,3.61,0,0,0-2,.61l-1.1.11a4.35,4.35,0,0,0,.31,1.57c.28.5,1.39,1.25,1.25,1.58s.62,1,1,1.1a.93.93,0,0,0,.34,0,.6.6,0,0,1,.47.08c.35.2,0,.52,0,.65s.42.63.47.75a1.13,1.13,0,0,0,.36-.35c.2-.27.51-.45.82-.22s1,.82.9.89a7.35,7.35,0,0,0,.23-1.12c0-.41.39-.65.57-.83s.15-1.09.54-1.33a1.94,1.94,0,0,1,1.18-.33,3.57,3.57,0,0,1,1.47,0,9.71,9.71,0,0,0,1,.18c.07.07.9,1.09,1.19,1.07s1.51-.69,1.82-.5,2.19,1.11,2.66.88a5.14,5.14,0,0,1,2.77-1c1.2.11,2,.69,2.36.49s.46-.65,1-.75.45-.23.41-.3-.69-.71-.39-1.07a1.25,1.25,0,0,1,.75-.42,2,2,0,0,0,.58-.76,19.4,19.4,0,0,1,2-2.78,12.12,12.12,0,0,0,1-1.11,47.46,47.46,0,0,1,.49-5.41c.24-.41.46-.82.11-1.22A3.86,3.86,0,0,1,123,95c-.08-.82-.47-2.48-.47-2.48" fill="#d1d3d4"/>
    <path d="M119.78,109.83c0,.07,0,0-.49.14s-.57.54-1,.75-1.17-.38-2.36-.49a5.14,5.14,0,0,0-2.77,1c-.48.23-2.35-.69-2.66-.88s-1.52.49-1.82.5-1.13-1-1.2-1.07a9.68,9.68,0,0,1-1-.18,3.57,3.57,0,0,0-1.47,0,1.94,1.94,0,0,0-1.18.33c-.39.24-.37,1.15-.54,1.33s-.54.42-.57.83a7.35,7.35,0,0,1-.23,1.12,1.17,1.17,0,0,0,.2,1.12c.38.42.14,1.52-.42,2.35s-.22,1-.58,1.1-.62.69-.6,1.59,0,3,.06,3,3-.41,3.58.57,1.33,2.84,1.85,3a19.26,19.26,0,0,0,4.14-.34c.18-.09.6-.27.6-.27a3.59,3.59,0,0,0,.68-1.63c0-.71.35-.41.9-1s1.68-1.6,2.07-1.2,1.11,1.11,1.55.46,1.63-2.85,2.12-3.67a18.43,18.43,0,0,0,1.39-2.74c.08-.38.52-1.6.92-1.77s1.22-.35,1.06-1.11-.52-.71-.65-.84a3.54,3.54,0,0,1-.84-.81c-.21-.31-.51-.8-.69-1.11s-.09-.13-.09-.13" fill="#d1d3d4"/>
    <path d="M120,108.17a2,2,0,0,0,.58-.76,19.41,19.41,0,0,1,2-2.78,12.11,12.11,0,0,0,1-1.11,47.45,47.45,0,0,1,.49-5.4c.24-.41.46-.82.11-1.22A3.86,3.86,0,0,1,123,95c-.08-.82-.47-2.48-.47-2.48l2-.86,14,6.93.05,7.17S136,107,136,108.13a4.37,4.37,0,0,1-.79,2.08c-.23.45-.38.87.42,1.32s.38-.23.57.83.53,1,.53,1.43a2.66,2.66,0,0,1-.11.75s-1.66-.19-2.07.72-1.32,2.49-3,2.57-1.55.26-1.66.9-.57.72-2.11,1.06-2.68.64-3.24.68-.19.34-.57,0-.3-1.55-.9-2.07-1.89-1.32-1.74-1.66,2-.38,2.3-.38.42-.19.11-.6a3.78,3.78,0,0,1-.57-1.81,4.78,4.78,0,0,0-.38-2.3c-.38-.45-.41-.53-.19-.64s.87-.57.41-.94-1.21,0-1.54-.53.07-.64-.34-1a1.67,1.67,0,0,0-1-.38" fill="#d1d3d4"/>
    <path d="M111.38,125.35a3.59,3.59,0,0,0,.68-1.63c0-.71.35-.41.9-1s1.68-1.6,2.07-1.19,1.11,1.11,1.55.46,1.63-2.85,2.12-3.67a18.44,18.44,0,0,0,1.38-2.74c.08-.38.52-1.6.92-1.77s1.22-.35,1.06-1.11-.69-.65-.65-.84c.09-.47,1-.59,1-.59a2.71,2.71,0,0,0,.3.39,4.77,4.77,0,0,1,.38,2.3,3.79,3.79,0,0,0,.57,1.81c.3.41.23.6-.11.6s-2.15,0-2.3.38,1.13,1.13,1.74,1.66.53,1.47.78,1.92a20.19,20.19,0,0,1-1.49,2.42c-.27.19-.35.82-.29,1.63a5.25,5.25,0,0,0,1.09,2.7,5.67,5.67,0,0,0,1.19,1.19.89.89,0,0,1,.44.9c0,.56,0,.56,0,.73s.13.79,0,.86-.38-.27-1.27-.44a6.19,6.19,0,0,0-2.21-.4,9.34,9.34,0,0,1-1.45.19c-.17-.1-.29-.3-1.4-.34a5.57,5.57,0,0,0-1.93.14,8.67,8.67,0,0,1-2.69-.13c-.38-.21.54-.88-.27-2.13a12.52,12.52,0,0,0-2.05-2.31" fill="#d1d3d4"/>
    <path d="M134.54,126.24c-1.52-.17-2.13-.36-2.61-1.05s-1.22-.41-1.79-.11a3,3,0,0,0-1.08,1.15l0,1.13a14.57,14.57,0,0,1-1.87,0c-1.15-.06-1.63.5-1.68,1.24a2.17,2.17,0,0,1-.8,1.32c.06-.17,0-.17,0-.73a.89.89,0,0,0-.44-.9,5.67,5.67,0,0,1-1.19-1.19,5.25,5.25,0,0,1-1.09-2.7c-.06-.82,0-1.44.29-1.63a20.16,20.16,0,0,0,1.49-2.42l.12.15c.38.3,0,0,.56,0s1.7-.34,3.24-.68,2-.41,2.11-1.06,0-.83,1.66-.91,2.6-1.66,3-2.57,2.07-.72,2.07-.72a5.26,5.26,0,0,1,1.12,1.19,3.34,3.34,0,0,1,.43,1.47s-.9.57.52,1.63,2.58,1.82,3.21,2.42,1.11,1.63,1.41,1.79,1.25,1,.82,1.44-.38.65-1.36.41a3.5,3.5,0,0,0-2.12.14,1.16,1.16,0,0,1-1,.22,5,5,0,0,0-2,.3c-.32.16-1,.08-1.36.43s-1.73.27-1.73.27" fill="#d1d3d4"/>
    <path d="M159,92.13a6.2,6.2,0,0,0-1.33,1c-.26.39-1.08,1.51-1.72,1.46a4.81,4.81,0,0,1-1.25-.43l-2.71,0-11.54.17-.09,3.53-1.81.13-.09.56.06,7.17S136,107,136,108.13a4.37,4.37,0,0,1-.79,2.08c-.23.45-.38.87.41,1.32s.38-.23.57.83.53,1,.53,1.43a2.66,2.66,0,0,1-.11.75,5.26,5.26,0,0,1,1.12,1.19,3.19,3.19,0,0,1,.42,1.28s2.27,0,2.38-.43a1.16,1.16,0,0,1,1.3-.9c.87,0,.84,1.66,1.79,1.52a6.48,6.48,0,0,1,2.53.33,4.22,4.22,0,0,0,2.36-.92c.35-.38.54-.84,1.19-.46s1.22,1.25,1.88.65,2-1.87,1.87-2.28.11-1.85.93-1.87c0,0,.63-.08.6.38a6.31,6.31,0,0,0,.05,1.66c.11.22,1.11,2,1.47,2s.35-1.44.84-1.79.81-.49.92-1.22.79-2,1.19-2.12.87-.49,1-1.52.06-2.88.35-3.5a13,13,0,0,0,.63-2.44,1.73,1.73,0,0,1,1-1.19,16.23,16.23,0,0,0,1.71-1.41s-1.9-.92-2.06-2.42-.44-4.46-.87-5a27.05,27.05,0,0,0-2.14-1.9" fill="#d1d3d4"/>
    <path d="M160.56,108.29a5.94,5.94,0,0,1,.24-1.82,13,13,0,0,0,.63-2.44,1.73,1.73,0,0,1,1-1.2,16.13,16.13,0,0,0,1.71-1.41,7.38,7.38,0,0,1,1.33,3.05,3.59,3.59,0,0,0,2.07,2.78,8.47,8.47,0,0,1,2.71,2l2,2.24c-.21-.12-.5,0-.8.24a4.22,4.22,0,0,1-.88-.6c-.44-.39-2.83-2.9-4.36-3a12.52,12.52,0,0,0-2,0,1.75,1.75,0,0,0-1.24.41c-.29.29-1,0-1.34-.12a2.92,2.92,0,0,0-1-.18" fill="#d1d3d4"/>
    <path d="M171.94,114.55c-.72.4-1.77.55-1.82-.27a3.52,3.52,0,0,1,1.07-2.34l.19-.17a4.22,4.22,0,0,1-.88-.6c-.44-.39-2.83-2.9-4.36-3a12.51,12.51,0,0,0-2,0,1.75,1.75,0,0,0-1.24.41c-.29.29-1,0-1.34-.12a2.92,2.92,0,0,0-1-.18l-.12,1.69c-.16,1-.62,1.41-1,1.52s-1.09,1.39-1.19,2.12-.43.87-.92,1.22-.49,1.79-.84,1.79c0,0,.34,1.89.05,2.11s-1.45-.07-1.7.36-.58.87.29,1.16a3.38,3.38,0,0,1,2.54,2.14c.76,1.67.87,1.92,1.34,2s.4.76.54,1.05.07.14.36.07.25.43.69.51,4.35,1.66,5,1.74,1.38-1.3,2.28-1.38.4.18,1.2.36a3.9,3.9,0,0,0,1.12.14,4.13,4.13,0,0,1,1.34-.8c1.16-.54,1.38-.94,2.39-1.05s1.16.18,1.85-.22a51.83,51.83,0,0,0,5.11-5.07,7.14,7.14,0,0,1-2.14-.18c-.69-.29-4.13-1.41-5-1.88a6.47,6.47,0,0,1-1.81-2,1.39,1.39,0,0,1,0-1.11" fill="#d1d3d4"/>
    <path d="M170.19,126.89a4.13,4.13,0,0,1,1.34-.8c1.16-.54,1.38-.94,2.39-1.05s1.16.18,1.85-.22a51.84,51.84,0,0,0,5.11-5.07,7.14,7.14,0,0,1-2.14-.18c-.69-.29-4.13-1.41-5-1.88a6.47,6.47,0,0,1-1.81-2,1.39,1.39,0,0,1,0-1.11,4.84,4.84,0,0,0,.72-.8s.64.72,1.24,1.3a2.57,2.57,0,0,0,2.09.24,17.22,17.22,0,0,1,4.17-1.16,13.76,13.76,0,0,0,3.51-.4c1-.36,1.74-1.19,2.5-1s.11,2.54-.22,3.73-5.11,10-6.81,11.48a19.76,19.76,0,0,1-3.69,2.57,30.79,30.79,0,0,0-5.72,5.76,10.34,10.34,0,0,1-1-1.05,41.06,41.06,0,0,1,0-6.34c.11-.25,1.48-2,1.48-2" fill="#d1d3d4"/>
    <path d="M169.72,136.31a10.35,10.35,0,0,1-1-1.05,41.06,41.06,0,0,1,0-6.34c.11-.25,1.48-2,1.48-2a3.9,3.9,0,0,1-1.12-.14c-.8-.18-.29-.43-1.2-.36s-1.59,1.45-2.28,1.38-4.6-1.67-5-1.74a4.13,4.13,0,0,0,0,1.53c.17.42,1.41,1.59.54,2s-1.49-1.36-1.66-1.62a3,3,0,0,1-.17-1.43c0-.47.09-.82.09-.82l-2.36,0-.66.79s1.71,2.72,1.57,3.82a8.37,8.37,0,0,1-1.61,2.88,2.55,2.55,0,0,0,.37.72c.16.12.89-.05.89.21s-.75.61-.85.72a1.75,1.75,0,0,0-.16.73c0,.05,6.28,3.46,6.3,3.74s-.07.61.82,1.31,1.87,1.35,2.09,1.2.89-2.43,1.5-2.95a13.61,13.61,0,0,0,1.62-1.41,10.62,10.62,0,0,1,.87-1.11" fill="#d1d3d4"/>
    <path d="M144.06,124.48c.43-.46-.52-1.28-.82-1.44s-.79-1.2-1.41-1.79-1.79-1.36-3.21-2.42-.52-1.63-.52-1.63l0-.19s2.27,0,2.38-.43a1.16,1.16,0,0,1,1.3-.9c.87,0,.84,1.66,1.79,1.52a6.48,6.48,0,0,1,2.53.33,4.22,4.22,0,0,0,2.36-.92c.35-.38.54-.84,1.19-.46s1.22,1.25,1.88.65,2-1.87,1.87-2.28.11-1.85.93-1.87c0,0,.63-.08.6.38a6.31,6.31,0,0,0,.06,1.66c.11.22,1.11,2,1.47,2,0,0,.34,1.89.05,2.11s-1.45-.07-1.7.36-.58.87.29,1.16a3.39,3.39,0,0,1,2.54,2.14c.76,1.67.87,1.92,1.34,2s.4.76.54,1.05l-.19.26-2.36,0-.66.78a3.54,3.54,0,0,1-1.91.78c-.87,0-2.28,0-2.74,0s-.75.1-1,.07a3.22,3.22,0,0,1-1.29-.73c-.41-.39-.61-.9-.92-.9s-.36.29-.94.27a.78.78,0,0,0-.48.11.74.74,0,0,1-.59.09,9.92,9.92,0,0,1-2.4-1.7" fill="#d1d3d4"/>
    <path d="M156.26,133.15a8.37,8.37,0,0,0,1.61-2.88c.14-1.1-1.57-3.82-1.57-3.82a3.54,3.54,0,0,1-1.91.78c-.87,0-2.28,0-2.74,0s-.75.09-1,.07c0,0-.41,2-.12,2.15s1.45.25.91,1-.87,1.41-1.23,1.34a.88.88,0,0,0-1,.51c-.22.43-.51,1.45-.36,1.52s.43.72-.36,1c0,0-.11,1.16,0,1.23a1,1,0,0,0,1.05-.15,1.7,1.7,0,0,1,1.52-.4c.9.07,1.19.07,1.19.07s-.4-1.34,1.45-2.24,2.48-.29,2.48-.29" fill="#d1d3d4"/>
    <path d="M148.57,136.16c-.14-.07,0-1,0-1,.32-.12-1-.64-.94-.81.05-.8.71-.72,1-.64l.15,0c-.15-.07.27-1,.49-1.4a.89.89,0,0,1,.7-.52c.09,0-1-.15.49-1.69.31-.31,1.05-.31.95-.38a3.7,3.7,0,0,0-.84-.31c-.29-.11.12-2.15.12-2.15a3.22,3.22,0,0,1-1.29-.73c-.41-.39-.61-.9-.92-.9s-.36.29-.95.27a.78.78,0,0,0-.48.1.74.74,0,0,1-.59.09,9.92,9.92,0,0,1-2.4-1.7c-.43.46-.38.65-1.36.41a3.5,3.5,0,0,0-2.12.14,1.16,1.16,0,0,1-1,.22,5,5,0,0,0-2,.3c-.32.16-1,.08-1.36.43s-1.73.27-1.73.27c-1.52-.17-2.13-.36-2.6-1.05s-1.22-.41-1.79-.11a3,3,0,0,0-1.08,1.15l0,1.13s-.93,6.27-1.51,7.16-2.67,2.62-2.67,3.4.63,2.35-1,3.4-1,1.1-2,.89-2.77-.1-3.19.58a6.53,6.53,0,0,1-.84,1.1l.21.52a21.28,21.28,0,0,1,2.67-.21c1.26,0,4.6-.47,4.87.16s1.26,3.56,1.78,3.72a7.72,7.72,0,0,0,2.93-.1c.26-.21.21-1.68.78-1.68s1.26-.37,1.52.05,1.47.1,2,.47.42.26.37,1.67-.32,1.83-.05,2.46.68.78.68,1.36-.42,1.31.21,1.36a5.74,5.74,0,0,0,1.39-.24,5.24,5.24,0,0,1,1.59-.23c.73.1.37.84,1,.73s.89-.26,1.41.37,2,1,2.46.52.57.05,1.36.73,2.15,2.15,2.88,2.2,1,.05,1-.84.16-1.26-.58-1.46-2.15-.73-1.88-1.78a11.36,11.36,0,0,0,.31-2.77c-.05-.21-.89-.26-.42-1.46s1.15-.68,1.15-.68l2.4-.63a3.43,3.43,0,0,0-1.1-1.78,2.21,2.21,0,0,1-1.15-2.15c-.1-1.31-.58-2.46-.32-3.35s.63-1.2.42-1.57-.32-1.15-.47-1.15-1-.37-.52-1.15,1.1-.37,1.1-.37l.7-.45" fill="#d1d3d4"/>
    <path d="M148,136.54l.6-.38a1,1,0,0,0,1.05-.15s.4-.34.51-.22,1,1.34.59,2a.64.64,0,0,1-.83.34.54.54,0,0,0-.4,0c-.27.18-.45.52-1,.5a5.45,5.45,0,0,1-.93-.11l-.27-.45s.75-.25.75-.66a5.11,5.11,0,0,0-.09-.86l0,0" fill="#d1d3d4"/>
    <path d="M150.33,138.18a.94.94,0,0,1-.44,0,.54.54,0,0,0-.4,0c-.27.18-.45.52-1,.5a5.45,5.45,0,0,1-.93-.11,3.58,3.58,0,0,1,.24,1c0,.18.51-.11.54.62s.3,1.67.51,1.65a8.44,8.44,0,0,0,1.94-2c0-.17-.31-.29-.43-.62a2.37,2.37,0,0,1-.05-1" fill="#d1d3d4"/>
    <path d="M165.73,141.78c-.23.14-1.2-.51-2.09-1.2s-.8-1-.82-1.31-6.27-3.78-6.3-3.74c-1.2,1.63-.53,1.9-.71,2.46s-2.39.49-3.28.36-.18-2.66-.18-2.66-.29,0-1.19-.07c0,0-1.08-.07-1,.18s1,1.34.59,2l-.39.35a2.37,2.37,0,0,0,.05,1c.12.33.48.46.43.63a8.44,8.44,0,0,1-1.94,2,6,6,0,0,0,.35,1.7c.29.65-.18,1,0,1.3s.9.53,1,1.12a11.38,11.38,0,0,0,1,2.45,5,5,0,0,0,.31.58,15.44,15.44,0,0,0,4.33,1.85s.34-.91,1,.15a11.2,11.2,0,0,1,.87,2.57c.22.36.52.8.52.8s7.28.24,9.2-2c0,0-.24-.34-.62-.8a7.53,7.53,0,0,1-1.3-3.37c0-1,.52-1.68.33-2s-1.14-1.58-1-2.41a7.46,7.46,0,0,1,.82-1.92" fill="#d1d3d4"/>
    <path d="M113.71,129.79a11.64,11.64,0,0,0,2.69.12V132s-2.36.05-2.61,0a1.4,1.4,0,0,1-.62-.14c-.06-.07-.33-.27-.2-.46s.64-.64.62-1a1.5,1.5,0,0,1,.14-.66" fill="#d1d3d4"/>
    <path d="M113.15,131.92a1.4,1.4,0,0,0,.62.14c.24,0,2.61,0,2.61,0v-2.08a4.84,4.84,0,0,1,1.86-.15c1.11,0,1.25.2,1.41.3,0,0-.31,1.53,0,1.53s1.42-.78,1.83.19-.2,1.09-.53,1.42a.7.7,0,0,0,.09,1.12c.44.33,1.09.48.73,2.07s-.56,1.79-.92,1.59a.84.84,0,0,0-.8-.13c-.33.08-.5.36-.84-.09s-.36-.67-.67-.5a4.51,4.51,0,0,1-1.19.55.75.75,0,0,0-.48,1.2c.31.55.41.93.11,1.09l-1,.52s-1.64-1.54-2.43-2.39a11,11,0,0,1-1.45-2.49c-.19-.28-.12-.56.2-.83a3.26,3.26,0,0,0,.62-1.79,2,2,0,0,1,.16-.76,2,2,0,0,0,0-.46" fill="#d1d3d4"/>
    <path d="M117.36,142.43s1.51-1.37,1.81-1a1.68,1.68,0,0,1,.34.82s-.69.2-.83.53a2.31,2.31,0,0,1-.84,1.1Z" fill="#d1d3d4"/>
    <path d="M124.68,129.93l0,0Z" fill="#d1d3d4"/>
    <path d="M119.69,142.25a5.56,5.56,0,0,1,2.18,0c.94.21.37.16,2-.89s1-2.62,1-3.4,2.09-2.51,2.67-3.4,1.51-7.17,1.51-7.17a14.56,14.56,0,0,1-1.87,0c-1.14-.06-1.63.5-1.68,1.24a2.17,2.17,0,0,1-.8,1.32c-.06.17.13.79,0,.86s-.38-.27-1.27-.44a6.19,6.19,0,0,0-2.21-.4l-1.5.15s-.31,1.53,0,1.53,1.42-.78,1.83.19-.2,1.09-.53,1.42a.7.7,0,0,0,.09,1.12c.44.33,1.09.48.73,2.07s-.56,1.79-.92,1.59a.85.85,0,0,0-.8-.12c-.33.08-.5.36-.84-.09s-.36-.67-.67-.5a4.48,4.48,0,0,1-1.18.54.75.75,0,0,0-.48,1.2c.31.55.41.94.11,1.09l-1,.52a8.88,8.88,0,0,1,1.34,1.78s1.51-1.37,1.81-1a1.68,1.68,0,0,1,.34.82Z" fill="#d1d3d4"/>
    <path d="M118.05,144.41a21.17,21.17,0,0,1,2.67-.21c1.25,0,4.6-.47,4.86.16s1.26,3.56,1.78,3.72a7.72,7.72,0,0,0,2.93-.11c.26-.21.21-1.67.78-1.67s1.26-.37,1.52.05,1.47.1,2,.47.42.26.37,1.67-.32,1.83-.05,2.46.68.78.68,1.36-.42,1.31.21,1.36,1.89-.44,2.7-.48c0,0,.22,3.9,0,3.9a26,26,0,0,0-3.45.14c0,.15-.07,5.38.11,5.56a23.61,23.61,0,0,1,2.32,2.54c-.15.07-2.94.54-3.2.58s-1,0-1.27.07-.58-.18-1.16-.22-1.71-.11-1.89-.11a7.1,7.1,0,0,1-1.09-.65c-.22-.11-7.08-.07-7.3-.07s-1,.15-1.42-.33-.51-.58-1-.4-.54.47-1.16.43-.91,0-.91,0a10.55,10.55,0,0,1,.11-2.51c.22-.54,1.38-4.5,2-5.19a6.21,6.21,0,0,0,1.56-2.8c.07-.8-1.74-4.1-1.45-4.4s.87-.54.44-1.49-1.72-3.82-1.72-3.82" fill="#d1d3d4"/>
    <path d="M146.77,150.89a11.36,11.36,0,0,1-.31,2.77c-.26,1,1.15,1.57,1.88,1.78s.58.58.58,1.46-.26.89-1,.84-2.09-1.52-2.88-2.2-.94-1.2-1.36-.73-1.93.1-2.46-.52-.73-.47-1.41-.37-.32-.63-1-.73h-.28s.22,3.9,0,3.9a26,26,0,0,0-3.45.14c0,.15-.07,5.38.11,5.56a23.61,23.61,0,0,1,2.32,2.54s2.14-.56,2.84-.15a6.66,6.66,0,0,0,3.43.66c.74-.22.92-.41.81-.77s.37-1.25,1.25-1.66a1.9,1.9,0,0,1,1.37-.22,1.12,1.12,0,0,1,.74-1.26c.92-.37,1.92-.29,1.92-.48s-.55-.92-.11-1.07,5.2-1.47,4.87-1.77-.7-.48-.41-1.48.66-.74.63-2-.18-2,.11-2.21.44-.85-.07-1.62a3.59,3.59,0,0,1-.55-1l-.12,0a23.31,23.31,0,0,1-2.63-1.34.64.64,0,0,1-.94.44c-1.48-.52-.69-1.27-.69-1.27l-2.4.63s.85.35.29,1.31-1,.84-1,.84" fill="#d1d3d4"/>
    <path d="M155.87,150.79a6.07,6.07,0,0,1-1.48-.42l-.1-.06a3.59,3.59,0,0,0,.55,1c.52.77.37,1.36.07,1.62s-.15,1-.11,2.21-.33,1-.63,2,.07,1.18.41,1.48c0,0,.66,1.15,1,1.07s1.32-.61,1.52.27.07,1,0,1.07-.86.76-.54,1.2,1.36,2.39,1.73,2.32.52-.6.46-.92-.24-.72.29-.88.78-2.1.71-2.61-1.29-1.64-1.37-1.71.23,1.52,0,1.52a3.09,3.09,0,0,1-1.34-1.67,8.94,8.94,0,0,0-.53-2.23c-.2-.42.18-.82.26-1.3a6,6,0,0,0-.15-2.39,8,8,0,0,1-.76-1.56" fill="#d1d3d4"/>
    <path d="M149.82,161.45c0-.18-.55-.92-.11-1.07s5.2-1.47,4.87-1.77c0,0,.66,1.15,1,1.07s1.32-.61,1.52.27.07,1,0,1.07-.86.76-.54,1.2,1.36,2.39,1.73,2.32.52-.6.46-.92-.24-.72.29-.88.78-2.11.71-2.61-1.29-1.64-1.37-1.71a5.31,5.31,0,0,1-.57-2.42,4.48,4.48,0,0,1,.47-1.7s7.28.24,9.2-2a17.16,17.16,0,0,1,.22,3.26,10,10,0,0,0,.18,3.51,5.23,5.23,0,0,1-1.38,4.09c-1.05.87-4.09,1.77-4.67,2.35s-4,3.26-4.24,4.45,1,2.72,1.2,4.64.22,3.11-1.67,3.88-3.44,1.74-3.08,2.32a2.38,2.38,0,0,1,.18,1.48l-1.2,0a6.08,6.08,0,0,1-.25-2.1c.11-.94.58-2-.11-3s-1.23-2.43-.9-3,2.75-3.19,2.75-4.56.25-4.38,0-5.25-.47-1-1.34-1.19-1.52-.4-1.48-.72c0-.13.43-.1.9-.07.68,0,1.46.09,1.31-.36-.25-.76-2.28-.91-2.79-.65a.84.84,0,0,0-.4.87l-.65.11-.23-.85" fill="#d1d3d4"/>
    <path d="M151.76,174.15c.33-.61,2.75-3.19,2.75-4.56s.25-4.38,0-5.25-.47-1-1.34-1.19-1.52-.4-1.48-.72c0,0-.42.38-.72.32s-.25-.54-.25-.54l-.65.11-.23-.85c0,.18-1,.11-1.92.48a1.12,1.12,0,0,0-.74,1.26s.61.24.24.67-2.46,1.63-2.82,1.38l0,.08c0,.22-.28.36-.83.53a6,6,0,0,1-2.71-.36s.52,3,2.51,3.92,1.6,1.3,1.74,2.21.47,1.05,1.23,1.16a2.48,2.48,0,0,1,1.45.94,30.08,30.08,0,0,0,3.8.44" fill="#d1d3d4"/>
    <path d="M117.09,164.61s.29,0,.91,0,.69-.25,1.16-.43.54-.07,1,.4,1.2.33,1.42.33,7.08,0,7.3.07a7.1,7.1,0,0,0,1.09.65c.18,0,1.31.07,1.89.11s.87.29,1.16.22,1,0,1.27-.07,3.05-.51,3.2-.58,2.14-.56,2.84-.15c0,0,.44.37-.1.59s-1.85,1.52-2.34,1.41-.76-.76-2-.49a21.18,21.18,0,0,1-2.55.6v6h-1.74l-.05,11.9a3.19,3.19,0,0,1-2.28.87c-1.3-.11-1.85-.27-2-.54s-.65-1.2-1.14-.92-.6,1.09-1,1.09a13.87,13.87,0,0,1-3-7.28c-.33-4.18-.54-5-2.17-7.44s-3-5.15-2.91-6.38" fill="#d1d3d4"/>
    <path d="M131.6,178.32l0-5h1.74v-6a21.17,21.17,0,0,0,2.55-.6c1.2-.27,1.47.38,2,.49s1.86-1.07,2.34-1.41a1.45,1.45,0,0,1,.82-.29s.52,3,2.51,3.92,1.59,1.3,1.74,2.21.47,1.05,1.23,1.16a2.49,2.49,0,0,1,1.45.94,7.77,7.77,0,0,1-1.21.64c-.52.19-2.83,1.71-2.88,2.2s-.32,1.47-1,1.6-.93.3-1,.73a1.52,1.52,0,0,1-1.57,1.41c-1.17-.05-1.28,0-1.68-.3s-.73-.73-1.46-.49-.54.84-.74,1.11-1.44,1.66-1.87,1.68-1.58.22-1.71-.05a.81.81,0,0,1,.11-1.06c.41-.38-.11-2.2-.43-2.47a2.6,2.6,0,0,0-.89-.41" fill="#d1d3d4"/>
    <path d="M154.22,182.3l-1.2,0a6.08,6.08,0,0,1-.25-2.1c.11-.94.58-2-.11-3s-1.23-2.43-.9-3a29.87,29.87,0,0,1-3.8-.44,7.77,7.77,0,0,1-1.21.64c-.52.19-2.82,1.71-2.88,2.2s-.32,1.47-1,1.6-.93.3-1,.73a1.52,1.52,0,0,1-1.57,1.41c-1.17-.05-1.28,0-1.68-.3s-.73-.73-1.47-.49-.54.84-.74,1.11-1.44,1.66-1.87,1.68-1.58.22-1.71-.05a.81.81,0,0,1,.11-1.06c.41-.38-.11-2.2-.43-2.47a2.6,2.6,0,0,0-.89-.41l0,6.9a3.19,3.19,0,0,1-2.28.87c-1.3-.11-1.85-.27-2-.54s-.65-1.2-1.14-.92-.6,1.09-1,1.09c0,0,1.74,4.4,2.61,5.11s1,2,.54,2.34,0,1.57.43,2.39,1.79,2.34,3.48,1.58a8.61,8.61,0,0,1,4.84-1,18.28,18.28,0,0,0,7.17-1.25,24.53,24.53,0,0,0,4.67-3.86c.92-1.09,1.63-2.77,2.77-3.86a6.77,6.77,0,0,0,2.12-3.15,12.94,12.94,0,0,1,.38-1.72" fill="#d1d3d4"/>
    <path d="M179.48,177.94a2.82,2.82,0,0,1-2.34,1.47h-.41a2.88,2.88,0,0,1-3.28-2,5.29,5.29,0,0,0-.38-2.5c-.54-1.3-.16-2.88,1-4.4s.54-2.07.22-3.42-.16-4,1.19-4.56a19.34,19.34,0,0,0,4.13-2.17,6.74,6.74,0,0,0,1.25-1.79c.43-.65.81-.54,1.3-1s.11-2.06,1.25-2,1.36,2.77,1.3,3.42.71,2.12.6,2.34-.44.87-.76.6-.54-.6-.71,0,.22,1.14.11,1.79a15.64,15.64,0,0,1-.65,2.5c-.33.92-3.8,11.68-3.8,11.68" fill="#d1d3d4"/>
    <path d="M96.63,107a10.55,10.55,0,0,1-1.23-.14c-.33,0-1.81,1-2.79,1.3s-1,.83-1.81,1.59a1.18,1.18,0,0,1-1.19.41,1.1,1.1,0,0,0-.44,0c-.51.11-.59,1.89-1.3,2.14s-1.19,1.77-1.27,2.32l-.22.79c.08-.11.86.29.92.42s.56.9,1,.91a2.64,2.64,0,0,0,.77-.18,2.57,2.57,0,0,1,1-.17,2.1,2.1,0,0,1,1.22.63,2.89,2.89,0,0,0,0-1.53,1,1,0,0,1,0-1.07,33.93,33.93,0,0,1,3.52,0,.47.47,0,0,0,.53,0,.59.59,0,0,1,.69,0c.15.1.28.06.45,0a1.12,1.12,0,0,1,.43,0c.42,0,.87.14,1,.11s.75-.77,1-.79a5.69,5.69,0,0,0,1-.09c.18-.07.71-.6.65-.72s-.52-.61-.48-.75.35-.45,0-.65a.6.6,0,0,0-.47-.08.93.93,0,0,1-.34,0c-.37-.07-1.13-.78-1-1.1s-1-1.07-1.25-1.58a4.88,4.88,0,0,1-.33-1.64" fill="#d1d3d4"/>
    <path d="M73.91,83.78h-.8a1.63,1.63,0,0,1,.1-.16l.71.16" fill="#d1d3d4"/>
    <path d="M80.77,86.73A37.27,37.27,0,0,0,73,84.09c.06-.19.09-.31.09-.31h.8a37.84,37.84,0,0,1,6.88,2.4v.55M66.61,95.45h0" fill="#d1d3d4"/>
    <path d="M100.12,106.4h-.54a37.73,37.73,0,0,0-15-17.59v0h.87a38.23,38.23,0,0,1,14.65,17.64m-11.94,5.69A24.82,24.82,0,0,0,85,106.17h.61a25.42,25.42,0,0,1,2.87,5.32,2.43,2.43,0,0,1-.31.59" fill="#d1d3d4"/>
    <path d="M84.6,88.8a37.47,37.47,0,0,0-3.83-2.07v-.55a38,38,0,0,1,4.69,2.58H84.6v0m1,17.36H85A24.93,24.93,0,0,0,66.7,96l-.31-.51h.23a25.38,25.38,0,0,1,19,10.72" fill="#d1d3d4"/>
    <path d="M90,124.57l-.5,0a25.07,25.07,0,0,0-.09-8,2.38,2.38,0,0,1,.49-.09,25.6,25.6,0,0,1,.09,8.16" fill="#d1d3d4"/>
    <path d="M102.23,116.81a37.61,37.61,0,0,0-.78-4.64.52.52,0,0,1,.21.1l.41.34q.37,1.71.59,3.47a3.89,3.89,0,0,1-.31.56l-.11.17" fill="#d1d3d4"/>
    <path d="M102.06,112.61l-.41-.34a.52.52,0,0,0-.21-.1,37.17,37.17,0,0,0-1.86-5.78h.54a37.78,37.78,0,0,1,1.93,6.22" fill="#d1d3d4"/>
    <path d="M102.91,122.3h-.5c0-.49,0-1,0-1.51a38.23,38.23,0,0,0-.21-4l.11-.17a3.89,3.89,0,0,0,.31-.56,38.52,38.52,0,0,1,.29,4.7q0,.78,0,1.52" fill="#d1d3d4"/>
    <path d="M89.38,116.5a24.63,24.63,0,0,0-1.19-4.41,2.43,2.43,0,0,0,.31-.59,25.32,25.32,0,0,1,1.38,4.92,2.39,2.39,0,0,0-.49.09" fill="#d1d3d4"/>
    <rect x="65.82" y="104.81" width="5.63" height="5.82" fill="#d1d3d4"/>
    <rect x="72.2" y="116.81" width="5.68" height="2.16" fill="#d1d3d4"/>
    <rect x="72.96" y="116.81" width="4.92" height="4.73" fill="#d1d3d4"/>
    <rect x="76.15" y="119.25" width="1.74" height="3.66" fill="#d1d3d4"/>
    <path d="M158.62,177.27q-2.8-2.46-5.32-5.17l.29-.42q2.47,2.65,5.2,5.07a2.3,2.3,0,0,1-.17.51" fill="#d1d3d4"/>
    <path d="M140.42,89.55V88.38a76.4,76.4,0,0,1,6.51-11.2l.12,0a.92.92,0,0,0,.4.09h0a76,76,0,0,0-7,12.23" fill="#d1d3d4"/>
    <path d="M137.17,97.9l-.45-.23q.62-1.92,1.36-3.84,1.07-2.79,2.33-5.46v1.17q-1,2.19-1.87,4.47-.74,1.93-1.37,3.88" fill="#d1d3d4"/>
    <path d="M133.15,117.15a75,75,0,0,1,3.57-19.47l.45.23a74.43,74.43,0,0,0-3.49,18.7,3.93,3.93,0,0,1-.53.54" fill="#d1d3d4"/>
    <path d="M133.76,126.14l-.51-.1q-.19-2.62-.19-5.27,0-1.81.09-3.62a3.94,3.94,0,0,0,.53-.54q-.12,2.08-.12,4.16,0,2.7.2,5.37" fill="#d1d3d4"/>
    <path d="M141.72,154.68a1.71,1.71,0,0,1-.49-.38,1.43,1.43,0,0,0-.46-.4A75.38,75.38,0,0,1,133.25,126l.51.1a74.91,74.91,0,0,0,8,28.54" fill="#d1d3d4"/>
    <path d="M146.22,163.25a75.42,75.42,0,0,1-5.45-9.36,1.44,1.44,0,0,1,.46.4,1.71,1.71,0,0,0,.49.39,74.94,74.94,0,0,0,5,8.47,2.3,2.3,0,0,0-.54.1" fill="#d1d3d4"/>
    <path d="M153.3,172.1a74.91,74.91,0,0,1-6.37-7.84,3.81,3.81,0,0,0,.4-.3,74.52,74.52,0,0,0,6.27,7.72l-.29.42" fill="#d1d3d4"/>
    <path d="M156,94.63h0a1.83,1.83,0,0,1-.43-.08q1.25-2.51,2.73-4.89l.29.49q-1.34,2.18-2.5,4.47H156" fill="#d1d3d4"/>
    <path d="M150,116.41a3.16,3.16,0,0,0-.38-.27l-.1-.05a58.52,58.52,0,0,1,6-21.54,1.83,1.83,0,0,0,.43.08H156a58,58,0,0,0-6,21.78" fill="#d1d3d4"/>
    <path d="M150.22,127.18a3.91,3.91,0,0,1-.54-.32,59.42,59.42,0,0,1-.31-6.07q0-2.37.18-4.7l.1.05a3.15,3.15,0,0,1,.38.27q-.16,2.17-.16,4.37a59,59,0,0,0,.35,6.39" fill="#d1d3d4"/>
    <path d="M150.51,129.44a.87.87,0,0,1-.05-.35l.05.35m1.28,6.22-.53,0q-.48-1.86-.85-3.76a1.18,1.18,0,0,0,.43-.41q.39,2.13.94,4.2" fill="#d1d3d4"/>
    <path d="M150.17,130.49q-.3-1.8-.49-3.64a3.92,3.92,0,0,0,.54.32q.1,1,.24,1.92a.87.87,0,0,0,.05.35l.1.63a.67.67,0,0,0-.15.11l-.29.31" fill="#d1d3d4"/>
    <path d="M159.84,154.3a58.58,58.58,0,0,1-8.58-18.67l.53,0c.1.4.21.79.32,1.18-.08.69-.07,1.44.41,1.51h0a58.13,58.13,0,0,0,7.87,15.92l-.59,0" fill="#d1d3d4"/>
    <path d="M166.92,162.71a59.33,59.33,0,0,1-7.08-8.41l.59,0a58.74,58.74,0,0,0,6.76,8,4.11,4.11,0,0,1-.27.43" fill="#d1d3d4"/>
    <path d="M181.07,173a58.94,58.94,0,0,1-6.38-3.86,1.87,1.87,0,0,0,0-.62,58.47,58.47,0,0,0,6.55,4l-.16.48" fill="#d1d3d4"/>
  </g>
</svg>
