<svg id="9adb65db-81b3-4d2c-b740-23c48ee83e5e" data-name="Layer 3" xmlns="http://www.w3.org/2000/svg" width="259.34" height="259.34" viewBox="0 0 259.34 259.34">
  <title>Artboard 1a</title>
  <g>
    <path d="M149.35,172.77a2.35,2.35,0,0,1-1.12-3c.63-1.81,1.94-2.69,2.38-1.88s-.87,3.07-.87,3.44,0,1.5-.38,1.44" fill="#d1d3d4"/>
    <path d="M123.58,208.37c.29.05.19,1.69,1.13,2s2.44,3.94,1.5,4.79-5.35-2.06-7.22-5.25a17.43,17.43,0,0,0-2.82-3.85c-.37-.56-2.91-4.5-3.85-5.07s-2.63-2.07-2.16-2.53a3.74,3.74,0,0,1,1.59.38,2.2,2.2,0,0,0,1.69.28c.66-.09.75,1.13,1.78,1.88s2.91,2.53,3.66,2.72,1.5,1.5,2.25,1.88,2.06.84,1.88,1.41-.47,1.22.56,1.41" fill="#d1d3d4"/>
    <path d="M142.72,209.49a3.72,3.72,0,0,1-.56,2.25,2,2,0,0,1-2,.84c-.85-.09-3.19-.75-4.22-.56a3,3,0,0,1-2.53-1c-.75-.66-.37-1.69-.94-2.07a2.86,2.86,0,0,1-1.5-2.53,3.71,3.71,0,0,1,.75-2.35,3.11,3.11,0,0,0,2.53,1.5c1.69,0,1.22-.84,3.1-.75s2.53-.09,3.1-1.22.56-3.1,1.69-3.1,1.88-.09,2,.47.19,3.28,1,3.57,1.41.94.84.94-2.44.66-2,1.41.75,1.41-.28,1.69-1,.94-1,.94" fill="#d1d3d4"/>
    <path d="M131.74,204a3.11,3.11,0,0,0,2.53,1.5c1.69,0,1.22-.84,3.1-.75s2.53-.09,3.1-1.22.56-3.1,1.69-3.1a7.38,7.38,0,0,1,1.56.06l1.53-.53c.66-.19,0,0-.09-.28s.94-.28,1.59-.47,0-.47-.56-.66a4.57,4.57,0,0,1-1.78-1.6c-.56-.75-1.31-.85-2.06.19s-1.32,1.31-1.41,1.6c0,0,.47,1,0,1.22s-1.22-.28-1.69-.09-1.5,1.69-2.16,2.06a9.24,9.24,0,0,1-2.06.66,2.58,2.58,0,0,0-.57,1.13c-.19.75-.56.94-1.5.56Z" fill="#d1d3d4"/>
    <path d="M154.22,186.35c0,.56.25,1.38-.62,1.06a17.6,17.6,0,0,0-2.63-1.06c-.5,0-.12,1.38-1.06,1.19a1.74,1.74,0,0,1-1.31-1.88c.06-.75-.87-1.88-.94-2.94s.5-.06.56-1,.25-3.94,1.75-3.57a1.81,1.81,0,0,1,1.44,2.31c-.19.69-1.12,1.56-1.19,2.75s.19,2.19.88,2.06a6.71,6.71,0,0,1,2.63.25,1.73,1.73,0,0,1,.5.81" fill="#d1d3d4"/>
    <path d="M156.41,197.79a2.22,2.22,0,0,1-2-.56c-.37-.56-.18-1.88-.69-1.94s-1,.38-1.31.31-.31-.75-.63-.25-.19,1.19-.75.88.5-2,1.5-2.31,2.07.31,2.75-.31,1.06-1.56,1.75-.94,1.31,2.88.75,3.38-.88-.31-1.13.38,0,1.31-.25,1.38" fill="#d1d3d4"/>
    <path d="M152.35,192.67c-.29-.14-1.25-.62-.62-1.31s1.25-1.38,1.38-.75-.12,2.38-.75,2.06" fill="#d1d3d4"/>
    <path d="M151,190.29c-.25-.64-.31-1.69.31-1.5s1.44.44,1.06,1-1.25.81-1.38.5" fill="#d1d3d4"/>
    <path d="M155.91,191.35c-.3.23-.69.06-.94-.75s.5-1.06.19-1.75-1-.94-.44-1.06a1.69,1.69,0,0,1,1.69,1.13c.06.63-.06.56-.5,1.13s.56.88,0,1.31" fill="#d1d3d4"/>
    <path d="M152.1,213.37s-1.07,1.13-1.5.94a4,4,0,0,1-1.12-2.31c-.06-.69.06-1.31-.57-.81s-.62,1.06-.5,2.19.63,2.32-.44,2.13-1.31-.12-1.12-1.31.13-1.88-.25-2.06a1.62,1.62,0,0,1-.38-1.88,7.88,7.88,0,0,0,1.13-2.31c.06-.62.5-3,2.5-2.94s3.44.69,3.81.5,1.57-1,1.63-.38-.94,1.5-1.88,1.38-4-.63-4.44-.25-.94,1.25-.31,1.88a1.82,1.82,0,0,0,1.88.44c.63-.13,2.32-.94,2.32-.44s-1.25,1.31-1.94,1.5-.94.56-.62.81a3.87,3.87,0,0,1,1.06,1.56,5.11,5.11,0,0,0,.75,1.38" fill="#d1d3d4"/>
    <path d="M144,220.44c-.25,0-3.75-.44-4.32-.5l-5.63-.63c-1.12-.12-1.94-.56-2.69-.56a12.91,12.91,0,0,1-4.06-1c-.63-.44-1.19-1-.88-1.38s3.25-.12,3.69.31a3.86,3.86,0,0,0,2.5.63,8.11,8.11,0,0,1,2.5-.5c.75.12,2.19.19,2.38.5s.13.69.75.82c0,0,2.56.63,3.19.75a9.45,9.45,0,0,0,2.19.25,7.63,7.63,0,0,1,2.44.13c.31.19.82.88.25.88s-2.31.31-2.31.31" fill="#d1d3d4"/>
    <path d="M156,221.13a11.29,11.29,0,0,1-2.5,1.31c-.5,0-.06-.87.31-1.31a4.59,4.59,0,0,1,1.56-.81Z" fill="#d1d3d4"/>
    <path d="M159,219.94,156,221.13l-.62-.81a2.32,2.32,0,0,1,1.5-.69c.75.06,1.81-.25,1.94-.06a.74.74,0,0,1,.13.38" fill="#d1d3d4"/>
    <path d="M164,212.74c-.19,0-2.44-.37-3.5-.37s-1.63-1.13-.87-1.25,3.25-.37,3.75.13a3,3,0,0,1,.63,1.5" fill="#d1d3d4"/>
    <path d="M161,206.05s-1,.13-.94.5.38,2-.19,1.63a3.22,3.22,0,0,1-.81-2.88,1.64,1.64,0,0,1,1.38-1.19c.38,0,.63.56.5.88a2.55,2.55,0,0,0,.06,1.06" fill="#d1d3d4"/>
    <path d="M35.82,139.2c.06-.08-1-.71-1.09-.95s-.25-.52-.89-.76a3.38,3.38,0,0,0-1.66.08c-.17,0-.4-.47-1.08-.7s-2.9-.67-3.37-1.1a1.28,1.28,0,0,0-1.61,0,6.55,6.55,0,0,1-1.1-.86,3.89,3.89,0,0,0-1.72-.8A7.88,7.88,0,0,1,21.44,133c-.15-.13.13-.17.45-.22s1.15-1,1.32-1.12a.77.77,0,0,1,.41,0,2,2,0,0,0,.64,0c.47-.1-.53-1-.72-1.22s1.75-.68,1.92-1-.22-.55-.77-.47a6.17,6.17,0,0,1-1.28,0,1.39,1.39,0,0,1,1.21-1.16c.76-.05,1.58-.54,1.08-1.59s1.12-.92.38-1.66-2.43-.51-3.41-1.21a2,2,0,0,0-1.53-.15c-.63.1-1.24.21-1.66-.36a29.84,29.84,0,0,1-2.06-2.91c-.76-1.23-3.85-.7-3.9-.59l0-.07A14,14,0,0,1,13,117.5c0-.25.45-.24.91-.23s.89,0,1-.19c.3-.42,0-.53-.71-.87a4.15,4.15,0,0,1-1.65-2.41,3.46,3.46,0,0,0-.86-2,1.23,1.23,0,0,0-.94-.17,1.14,1.14,0,0,1-.69-.07,10.09,10.09,0,0,0-2.19-.49c.17-.07,0-1-.2-1.62a3.41,3.41,0,0,0-.79-1.29l.6-.62c.07,0,.08-.09-.26-.34a1.7,1.7,0,0,1-.47-1c-.09-.32-.47-.49-.57-1.16s1.29-.28,1.29-.28A1.76,1.76,0,0,0,8,103.59c.47-.56,2.63-1,2.63-1,.31-.28-.44-.69-1-.78a12.55,12.55,0,0,1-1.75-.66c-.22-.06.63-.77.63-.77,1.24-1.3,5.31-4.54,4.63-5.17a7,7,0,0,1-2-3.47c-.49-1.81,0-2.69-.71-3.88s-1.13-1.49-.28-2.69.76-1.65-.16-2.28a2.11,2.11,0,0,1-1-2.73l.13,0c.17.55.77-.3,1.6-1a2,2,0,0,1,1.61-.58l-.13-.36s.92.41,1.27,0,2-.09,2,.16-1,.47,0,.66a19.85,19.85,0,0,0,3.56.69c1.5.06,9.48,4.29,8.82,5.69s-2.35,2.5-5.19,2.16a27.55,27.55,0,0,1-5.19-1.19,10.33,10.33,0,0,1-2.31-1.28c-.34-.22-1.22-.19-.85.34a6.2,6.2,0,0,0,2.53,2.06c1.06.34,1.25.88,1,1.19a2.5,2.5,0,0,0,.09,2.6c.72,1.19,4,2.31,4.82,1.94s-.1-1.25-1.07-1.56-.75-1.06-.12-1.22a5.33,5.33,0,0,1,1.92.61,5.79,5.79,0,0,0,2.43.61c1.32-.16,1.63-.69.82-1.25s-1.35-.75-.6-1.22,2.72-1.56,3.22-1.94.63-.22,1.16-.06,1.28.69,1.66.44,1.22-1.57.75-1.91-1.28-.5-.87-1.41.78-1.91.47-2.1-1.59-.72-1.28-1,2.6,0,3.5.31,1.6,1.44,1.28,1.63-2,.28-2,.59.28,1.88,2.44,1.78,3-2.22,4.66-3,5.63-2.28,6-1.81-1.1,1.69,1.47,1.5,4.57-1.53,5.57-1.6,1.69.09,1.31.47,0,.91.81.72,0-.56.78-.78,1.25-.72.94-1-1.25-.84-.88-1.28.59-.78,1.13-.72a24.56,24.56,0,0,1,5.32,1.28c1.28.66,2.81.84,3.5,1.38s2.35,1.56,2.88.94-.5-1.66-1.16-2.13-.72-.81-1.28-.78-.75-.44-.47-1.06.69-1.85.19-2.1-.87-1.24,0-1.41a2.79,2.79,0,0,0,2.38-2.44,3.27,3.27,0,0,1,4.13-2.5c2.25.5,2.5.88,2.13,3s-.38,4.75.12,5.88,1,4.88-.25,6-5.13,2.63-3.63,3c0,0,4.13.13,5.38-1.38s.38-4,1.88-4.25,2.75-.62,3.25.88,1.88-.88,1-1.75-5.25-.62-5.51-2.63-1.12-4-.12-5.13,1.38-3.13,1.88-2.5-.12,2.75,1.5,2.63,1.13-1.5,3.25-1.75,2.63-.13,3.25.5a4.62,4.62,0,0,0,2,.88s1.38-.12.88,1.13-.37,4.13,1,4.13.88-.75.5-2.63.38-3.38-.87-3.63-2.88-1-3-2.63,2-2,3.88-2,5.13.63,5.63-.12-.87-1.13-1.75-2.38,1.13-2.13,3.5-2.63,13.26-2.88,15.51-3c.59,0,1.14,0,1.63,0,1.37,0,2.25.06,2.25-.86,0-1.25,4.63-3,6.76-2.75s1.38,2.25,3.38,2.5,7.13.38,8.13,1.13,1.75,1.88,1.38,2.63-4.88,2.38-5.25,3.25.63,1.13,3.63,1.13,8.26.37,8.38,1.5.38.88,2.63,1.38,5,.63,4.75-.5.5-2.38,4-1.37,5.88,2.75,5.38,4.13a2.93,2.93,0,0,0,1.88,3.75c.86.31,1.39-.39,1.9-1.08s1-1.43,1.85-1a4.36,4.36,0,0,0,2.48.31,15.46,15.46,0,0,1,3,.07c3.25.38,3.63,0,3.75-1.38s5.13-2.25,8.38-1.38,7.63,1.38,8.63,2.5,2.13,2,6,1.88,9,.63,9.13,2.13,4.63,2.38,9,2a7.07,7.07,0,0,1,3.62.38,2.37,2.37,0,0,0,2.26.24c2.13-.75-1.12-2.13,3.13-1.88A30.87,30.87,0,0,1,236,79c.67.23,2.51,1,3.19,1.25,3.42,1.26,5.65,3,8.51,4.19,2.17.94,4.47,1.89,5.44,2.38,1.88.94.75,1.94-.5,2.57s-2.31,3.13-3.75,2.69c-2.32-.71-6.07-3.75-7.44-3.38s-.62.63-1.5,1.38a5.77,5.77,0,0,1-2.75,1.63c-1,.13-1.5.5-.62,1.38s2.63,2.38,2,3.13c-.24.29-.88.28-1.76.28a10.29,10.29,0,0,0-5.62,1.23,35.48,35.48,0,0,0-6.26,4.38c-.21.28-1,0-1.8-.19a5,5,0,0,0-1.71-.31c-1,.13-2.38,1.25-3.25,1.25a7.4,7.4,0,0,0-3.5.75c-1,.63-2.88,2.75-2.13,3.25s1.82,2.82,1.32,4.07c-.25.63-.61.52-1,.41s-.72-.22-1,.41c-.5,1.25.75,2.63-1,3.25s-2,1-2.25,1.88-1.13-.25-1.75,1.38-2.38,4-3.25,3.63S201,112.6,203,110a58,58,0,0,1,9.63-8.76c1.38-.75,3.38-4.75,2.13-4.63s-.75,1.63-2.12,2.25-2.75,2.88-3.63,2,0-2.75-1-2.75a6.67,6.67,0,0,0-3.88,1.25c-1.38,1-3.63,2.88-3.5,3.38s1.62,1.88-.37,2-3.75,1.25-4.88.13-1.63-1.13-4-1.13-2.75.5-4.88.38-2.63-.12-7.38,3.25-8.26,5.76-6.88,6.51,2.38,1.88,3.5,1.75,4.88-.12,4.5,2.5-1.12,3.63-1,4.88,0,3.5-.87,4-4.25,5.51-5.13,6.38-3,3.88-4.63,4a5.77,5.77,0,0,1-2.38-.37c-.5,0-1.5,1-1.88,1,0,0-.81-.81-.59-.88s1.19.14,1.19-1.37.11-1.48-.11-1.87-.25-.72.4-1,1-.43,1-.32a2.42,2.42,0,0,1,.18.72c.07.4.65.72.86.25a4.85,4.85,0,0,1,.47-.72,14.58,14.58,0,0,0,1.15-2.45,3.64,3.64,0,0,1,.79-1.84c.36-.29.36-1.84,0-1.84a11.75,11.75,0,0,0-2.7,1.15,3,3,0,0,1-2.23,0c-.61-.32-.76-1.19-.83-1.69s-.54-.18-1-.61a3.72,3.72,0,0,0-1.37-.94c-.54-.18-1.48.11-1.91-.36a7.37,7.37,0,0,1-.86-1.77c-.36-.72-2.05-4.58-3.46-5a7.88,7.88,0,0,0-1.69-.36,6.72,6.72,0,0,0-3.21-.11c-1.44.29-2.67,1.15-2.31,1.37s1.26.58.86,1.15-2.12,3-2,3.39.07.54-.86,1-1.12.65-2,.47a12.9,12.9,0,0,1-1.84-.43c-.47-.18-.79,0-1.37,0s-1.23-.79-1.8-.65-2.17,1-3.1,1.44-3.75.94-4.94.36-2.23-1.48-3.35-1.87a13.06,13.06,0,0,0-4.07-.11,3.39,3.39,0,0,1-2.41-.47c-.61-.54-.65-.54-.69-1s-.11-.69-.65-.83-2.77-.58-3.42-.86-.83-.54-1.08-.4-1.48,1.55-1.3,2.05.9,1,.72,1.37a1.88,1.88,0,0,1-2,1.08c-1.26-.14-3.42-.5-3.86-1a6.55,6.55,0,0,0-2.49-.9,4.06,4.06,0,0,0-1.55.29,25.94,25.94,0,0,0-3.32,1.62,2.54,2.54,0,0,1-1.37.51c-.47,0-.87.47-1,.61s-.4.4-.72.36-1.08-1.22-1.3-1.33-.58.29-1.08.29a1.6,1.6,0,0,1-1.37-.76c-.43-.58-1-.25-1.22-.72s-1-1.23-1.41-1.26a1.41,1.41,0,0,0-.64.22,1.64,1.64,0,0,1-1,.21c-.72-.11-1.15-.14-1.41-.47s-.9-.65-1.12-.4-.36.76-.72.65-3-4.65-3.35-4.87A8,8,0,0,1,82.17,116c-.14-.29.54-.72.22-1s-2.24.58-2.6.83a3.83,3.83,0,0,1-1.48.76c-.54.07-1.26.32-1.15,0s.68-1,.29-1.08a2.13,2.13,0,0,0-.54,0,1.54,1.54,0,0,1-.57,0c-.32-.07-.83-.54-1.12-.65s-.43.29-1,.29-.83-.51-1-1.26-.11-1-.25-1a6.68,6.68,0,0,1-1.59.11c-.4-.11-1.95-.43-2.41.14a4.18,4.18,0,0,1-2.45,1,8.68,8.68,0,0,0-2.3.54,15.74,15.74,0,0,1-4.15.9c-.76-.11-1.87-.29-1.87.36a1.17,1.17,0,0,0,.87,1.23c.51.11.43.29.07.54s-1.23.29-1.19.76-.76.94-.83,1.3.29.76.94.94.9.54.61,1.15a1.57,1.57,0,0,1-1.59.65c-.4-.07-.76.18-1.08.18s-2.45-1-3.06-.83a4.69,4.69,0,0,1-1.2,0,3,3,0,0,0-.67,0c-.25.07-.87.68-1.69.54s-3-1.73-5.08-2-1.8-.25-2.59.47-2.6,1.62-2.31,2,.32,1.08-.36,1.08-1.12-1.3-1.69-1-1.12,2.34-1.08,2.92.29,1.69.76,1.84,1.08,0,1.62.36a2.44,2.44,0,0,1,1,1.26c0,.22-.4.72,0,1l.36.29a7.82,7.82,0,0,1-1.41,1,2,2,0,0,0-1.18.67c-.25.38-1.25,1.75-1,2.05s.83.63.85.9a6.61,6.61,0,0,0,1,2.79,4.75,4.75,0,0,1,.74.92l.14.2a8.74,8.74,0,0,0-1.07,1,.82.82,0,0,1-1-.36c-.13-.34-1.2-.63-1.2-.63" fill="#d1d3d4"/>
    <path d="M40,130.7s4.89-2.27,5.78.52c.7,2.19-.21,1.5-.64,1.44s-2.78.32-2.84,1.28,1.39,2.46,2.46,2.78.8.86.64,1.12-.48.59-.11,1a2.66,2.66,0,0,1,1.55-.75c1-.11,2.09.43,2.09,1s.38,1.07.75,1.07a4.75,4.75,0,0,1,.7.05l.16-7,3.8-1s3.85-3.48,5-2.25-1.18,1.82-.7,2.68.64.75.21,1.12a2.33,2.33,0,0,0-.53.59l1.34,1.61s5-1.23,5.78.86.91,3.16,1.71,3.48a1.63,1.63,0,0,0,1,0c.34-.06.63-.12.86.17.43.54.59.59.75.48A28.09,28.09,0,0,1,73.36,138s.05-.91,1.34-.85,2.09.85,2.25.53.59-1.61,1.39-1.23a3.72,3.72,0,0,0,2.57.32,14.62,14.62,0,0,1,4.6.38,14.93,14.93,0,0,1,1.6.75c.22.21.32-.75.64-1.34s-1-3.42.91-3.69,2.2-.48,2.57-1.71.59-1.87,1.23-1.71,2.84.59,3.21-1.18.48-1.39,1.07-1.55a7.93,7.93,0,0,0,1.76-1.09c-.32,0-1.08-1.23-1.3-1.33s-.58.29-1.08.29a1.6,1.6,0,0,1-1.37-.76c-.43-.58-1-.25-1.22-.72s-1-1.23-1.41-1.26a1.41,1.41,0,0,0-.65.22,1.64,1.64,0,0,1-1,.21c-.72-.11-1.15-.14-1.41-.47s-.9-.65-1.12-.4-.36.76-.72.65-3-4.65-3.35-4.87A8,8,0,0,1,82.17,116c-.14-.29.54-.72.22-1s-2.24.58-2.6.83a3.83,3.83,0,0,1-1.48.76c-.54.07-1.26.32-1.15,0s.68-1,.29-1.08a2.13,2.13,0,0,0-.54,0,1.54,1.54,0,0,1-.57,0c-.32-.07-.83-.54-1.12-.65s-.43.29-1,.29-.83-.51-1-1.26-.11-1-.25-1a6.68,6.68,0,0,1-1.59.11c-.4-.11-1.95-.43-2.42.15a4.18,4.18,0,0,1-2.45,1,8.68,8.68,0,0,0-2.3.54,15.74,15.74,0,0,1-4.15.9c-.76-.11-1.87-.29-1.87.36a1.17,1.17,0,0,0,.86,1.23c.51.11.43.29.07.54s-1.23.29-1.19.76-.76.94-.83,1.3.29.76.94.94.9.54.61,1.15a1.57,1.57,0,0,1-1.59.65c-.4-.07-.76.18-1.08.18s-2.45-1-3.06-.83a4.69,4.69,0,0,1-1.2,0,3,3,0,0,0-.67,0c-.25.07-.86.68-1.69.54s-3-1.73-5.08-2-1.8-.25-2.59.47-2.6,1.62-2.31,2,.32,1.08-.36,1.08-1.12-1.3-1.69-1-1.12,2.34-1.08,2.92.29,1.69.76,1.84,1.08,0,1.62.36a2.44,2.44,0,0,1,1,1.26c0,.22-.4.72,0,1l.33.26,0,0" fill="#d1d3d4"/>
    <path d="M50.35,140.15l.16-7,3.8-1s-.75,2.25.8,2.94,3.16-.8,3.16-.8l1.34,1.6s5-1.23,5.78.86.91,3.16,1.71,3.48a1.63,1.63,0,0,0,1,0c.34-.06.63-.12.86.17.43.53.59.59.75.48A28.09,28.09,0,0,1,73.36,138a.36.36,0,0,1,.11.64.86.86,0,0,0,.7,1.45c1-.05,2.14,1.34,1,1.71s-2.19.48-2.41.16-.53-.86-1.07-.86a3.35,3.35,0,0,0-2,1.61c-.16.59-1.55.16-1.6.86s1.5,1.5,1.18,2.19-.86,1.6-.86,1.6l-1.71-.37s.75-.8-.43-1.23-5.67-2.89-6-3.53-.48-1.87-1.12-2a3.2,3.2,0,0,0-.73,0A2.09,2.09,0,0,1,57.2,140c-.64-.32-.54-1.39-1-1.77a2.83,2.83,0,0,0-1.93-.48,3.26,3.26,0,0,0-1.82,2.09c-.06.8-2.09.27-2.09.27" fill="#d1d3d4"/>
    <path d="M58,159.64c-.06-.19.84-.88,1.19-1.41s-.09-.91-.63-1.06a1.45,1.45,0,0,1-.81-1.44c0-.66-.47-2.78-.22-3.22a21.49,21.49,0,0,0,1-2.28s1.62.63,2.37.09,1.93-.8,2.62-1.71a3.29,3.29,0,0,1,3.16-1.66l1.71.37s1.5.43,2.14.05,1.93-1.82,2.51-1.87,1.07.75,1.07,1.5.11,1,1.23.48a6,6,0,0,1,3.64-.43s-.54.27-.21.59a10.08,10.08,0,0,1-2,.59c-.86.11-2.83,1.07-2.46,1.6s-.27,2.84-1.34,2.89-1.29.48-1.23,1-.59,2.57-1.12,2.78a14.06,14.06,0,0,1-2.78.91c-.53,0-1.55.27-1.61,1a1.84,1.84,0,0,1-1.87,1.87,34.36,34.36,0,0,1-4.23-.05,16.27,16.27,0,0,1-2.13-.63" fill="#d1d3d4"/>
    <path d="M72.77,141.92c.21.32,1.28.22,2.41-.16s-.05-1.77-1-1.71a.86.86,0,0,1-.7-1.45.36.36,0,0,0-.11-.64s.05-.91,1.34-.86,2.09.86,2.25.53.59-1.6,1.39-1.23a3.72,3.72,0,0,0,2.57.32,14.62,14.62,0,0,1,4.6.38,14.93,14.93,0,0,1,1.6.75s.48.27-.14.7-2.25,1.26-2.38,1.49a3.93,3.93,0,0,1-1.76.64c-.39,0-.85.73-1.1.89s-.85.3-1.1.09a1.21,1.21,0,0,0-1-.23c-.41,0-.8.69-1.17.73s-.62.07-.62.46,0,.71-.44.78-2.08.21-2.45.21-.76-.39-1.05-.37a2.43,2.43,0,0,1-1,.07c-.44-.11-1.79-.07-2-.18s0-1.05.64-1,1,.27,1.05.14l.22-.33" fill="#d1d3d4"/>
    <path d="M79,147.06a6,6,0,0,0-3.64.43c-1.12.48-1.23.27-1.23-.48s-.48-1.55-1.07-1.5-1.87,1.5-2.51,1.87-2.14-.05-2.14-.05.54-.91.86-1.61-1.23-1.5-1.18-2.19,1.44-.27,1.6-.86a3.35,3.35,0,0,1,2-1.6c.54,0,.86.54,1.07.85l-.22.33c-.09.14-.46-.12-1.05-.14s-.89.92-.64,1,1.6.07,2,.18a2.44,2.44,0,0,0,1-.07c.3,0,.69.37,1.05.37s2-.14,2.45-.21c0,0,.08,1.48.31,1.48s1.32.07,1.36.52.16,1.63-.13,1.65" fill="#d1d3d4"/>
    <path d="M59.21,166.24c.15-.84,2.06-1.06,2.25-1.16s0-.75-.28-.91-.16-.56-.19-1.06-1-.88-1.56-1.1S58,159.83,58,159.64a16.27,16.27,0,0,0,2.13.63,34.36,34.36,0,0,0,4.23.05,1.84,1.84,0,0,0,1.87-1.87c.05-.75,1.07-1,1.61-1a14.06,14.06,0,0,0,2.78-.91c.54-.21,1.18-2.25,1.13-2.78s.16-1,1.23-1,1.71-2.35,1.34-2.89,1.6-1.5,2.46-1.6a10.08,10.08,0,0,0,2-.59s2,.92,2,1.17a.92.92,0,0,0,.67,1,10.09,10.09,0,0,1,2.11.61,9.49,9.49,0,0,1-2.95,1.55c-.52,0-2.24-.54-2.59-.21a.71.71,0,0,0-.08,1,1.05,1.05,0,0,1,.17,1c-.08.42.33,1,.73,1.38s1.19.48,1.11.67-1.13.4-1.13,1.11,0,.82-.69,1.73a48.84,48.84,0,0,1-3.66,4.47c-.29.1-1.46.44-1.65.19s-.61-.21-1.09.33-1,1.21-.59,1.51,1,.17.82.65a.93.93,0,0,0,.5,1.15c.4.17.92,1.32.63,1.65a3.14,3.14,0,0,1-1.67.61c-.38,0-1.57-.29-1.71,0a1.67,1.67,0,0,1-1,.67,1.26,1.26,0,0,1-.94-.86c-.12-.56-1-.9-1-1.25A.71.71,0,0,0,66,167a12.86,12.86,0,0,1-2.76.23,3.29,3.29,0,0,0-1.57.13,15.63,15.63,0,0,1-2.47.19c-.22,0-.13-.45,0-1.3" fill="#d1d3d4"/>
    <path d="M83.59,150.4a9.49,9.49,0,0,1-2.95,1.55c-.52,0-2.24-.54-2.59-.21a.71.71,0,0,0-.08,1,1.05,1.05,0,0,1,.17,1c-.08.42.33,1,.73,1.38s1.19.48,1.11.67-1.13.4-1.13,1.11,0,.82-.69,1.73a48.83,48.83,0,0,1-3.66,4.47c-.29.1-1.46.44-1.65.19s-.61-.21-1.09.33-1,1.21-.59,1.51,1,.17.82.65a.93.93,0,0,0,.5,1.15c.4.17.92,1.32.63,1.65a3.14,3.14,0,0,1-1.67.61c-.38,0-1.57-.29-1.71,0a1.67,1.67,0,0,1-1,.67s1.88,1.54,2.26,1.48,1.13-.69,1.13,0-1.69.63-1.5,1.13,1.63,2.38,2.57,2,1.13-1.25,1.62-1.75,1.63.13,1.63.81-.69,2.19-.5,3.13a63.3,63.3,0,0,0,2.57,8.69,47.62,47.62,0,0,0,2.38,5.44,2.33,2.33,0,0,1,.69,1.63c0,.63,1.06,2.06,1.63,1.94s2.56-2.56,3-3.31a11.92,11.92,0,0,0,1.13-4.63c0-1.63-.69-2.94,0-3.5s4.69-3,5.57-4.13,1.56-2.63,2.44-2.63a2.56,2.56,0,0,0,2.25-1.56c.19-.81.44-1.44,1.13-1.69a2.12,2.12,0,0,1,1.38-.06l.44.06a6.82,6.82,0,0,0-.19-2.38c-.31-.5-.25-1.31-.75-1.75s.07-.94.57-1.06-.94-1.25-.5-1.5,1-.56,1.5,0,.87,1.19,1.25,1.25,3.13.13,3.31.5-.62,1.19-1.06,1.5-.75.75-.32,1.19.38.38.75-.19.63-.5.69-.06.19,2.13.56,2.25.81-1,1.06-1.88-.06-.81.75-1.19,1-1.63,1.63-3.07,1.25-2.13,2.19-2.38,1.75-1.31,1.06-1.56a2,2,0,0,1-1.13-1.25c-.25-.5-.81-.62-1.5-.44a3.51,3.51,0,0,1-1.31.19c-.56,0-1.69,1.06-2.19,1.44s-.94.88-1.38.88-.25-.31-.44,0,.31.75.31,1.13-.19.56-.88.56-3.44.19-3.69-.19l-.25-.37a2.43,2.43,0,0,1-.19-.75c0-.31.19-.69-.25-.69a.77.77,0,0,0-.82.75c-.06.5.13,1.44-.06,1.63a5.46,5.46,0,0,1-2.38.06,7,7,0,0,1-2.88-1c-.31-.38-.94-.25-2.19-.38a10.91,10.91,0,0,1-4.44-2.44,2.4,2.4,0,0,1,.44-1.81c.31-.38.56-.88.12-1.13s-2-.81-2.38-1a2.9,2.9,0,0,1-.88-1.88c.13-.31.94-.5.82-1.13l-.12-.63s-.82-1-.57-1.38-.44-.63-.75-.88-.52-1.48-.52-1.48" fill="#d1d3d4"/>
    <path d="M88.2,159.28a1.63,1.63,0,0,1-.34.61,2.4,2.4,0,0,0-.44,1.81,10.91,10.91,0,0,0,4.44,2.44c1.25.13,1.88,0,2.19.38a7,7,0,0,0,2.88,1,5.46,5.46,0,0,0,2.38-.06c.19-.19,0-1.13.06-1.63a1,1,0,0,1,.13-.39,12.45,12.45,0,0,1-1.52-.29,8.92,8.92,0,0,0-1.52-.2,7.63,7.63,0,0,1-2.81-1.56c-.27-.43-.63-.49-1.26-.74a7.27,7.27,0,0,1-2.08-1.33c-.24-.33-1.06-.62-1.15-.38s-.87.17-.87.17Z" fill="#d1d3d4"/>
    <path d="M85.28,154c-.22-.31-.61-.92-.43-1.19s-.44-.63-.75-.88-.52-1.48-.52-1.48.9-.84,1.57-.82.88.39,1.33.49.88.06.85.29a5.37,5.37,0,0,1-.27.85A7.55,7.55,0,0,1,86,152.74c-.14,0-.54.25-.47.46s-.23.76-.23.76" fill="#d1d3d4"/>
    <path d="M100.5,164.18a1.63,1.63,0,0,1-.07-.41c0-.31.19-.69-.25-.69a.81.81,0,0,0-.54.18" fill="#d1d3d4"/>
    <path d="M105.09,163.64c.06.27.34.59.34.88s-.19.56-.88.56-3.44.19-3.69-.19l-.25-.37a3.3,3.3,0,0,1,.35-.73c.25-.39.77-1.42,1.45-1.25s1.06.47,1.41.44.84,0,1,.22a1.66,1.66,0,0,0,.3.44" fill="#d1d3d4"/>
    <path d="M106.37,172.65c.38.13.81-1,1.06-1.88s-.06-.81.75-1.19,1-1.63,1.63-3.07,1.25-2.13,2.19-2.38,1.55-1.06,1.25-1.43c0,0,.59-.44.81-.1a3.29,3.29,0,0,0,1.22,1.22c.47.15.25,2.25.09,2.47s-1.35.94-1.44,1.5,0,.91.16,1-.32.56-.13.69.66,0,.88-.16,1.1-.06,1,.19-.25,1,.09,1.13.91.28.72.56-.37.94-.22,1.1,1.1.19,1.06.53.06.53.38.56,1-.44,1.22-.25.25.34.06.53-.66.88-.91.94-.69.38-.59.66-.28,0-.53,0-1.16.94-1.75,1-1.06.09-1.22.5A4.86,4.86,0,0,0,114,178c0,.19-.44.25-.37.56a7.12,7.12,0,0,0,1.1,2c.44.5.91.88.91,1.19s-.34.85-.34,1.22-.56.66-.41,1,1.22,1.63,1.22,2a2.38,2.38,0,0,0,.09,1.31,1.8,1.8,0,0,1,.22,1.78c-.37.59-1.12,1.88-1.12,1.88s0-.5.16-1.31a5.61,5.61,0,0,0-.37-3.1,5.93,5.93,0,0,1-.88-2.5,10.56,10.56,0,0,0-.59-2.47c-.22-.53-.69-1.63-.84-1.22s-.81,1.44-1.28,1.47-.56.44-.87.69a1.86,1.86,0,0,1-1.81-.6c-.16-.44.56-2.19.28-2.85a8.85,8.85,0,0,0-1.22-1.85c-.19-.19-.06-.87-.22-1s-.35-.22-.88-.6a5.14,5.14,0,0,1-1.25-1.56c-.12-.28.28-.35.41-.41a4.45,4.45,0,0,0,.44-1" fill="#d1d3d4"/>
    <path d="M106.24,172.53a7.55,7.55,0,0,1-.43-2.14c-.06-.44-.31-.5-.69.06s-.31.63-.75.19-.12-.87.31-1.19,1.25-1.13,1.06-1.5-2.94-.44-3.31-.5-.75-.69-1.25-1.25-1.06-.25-1.5,0,1,1.38.5,1.5-1.06.63-.56,1.06.44,1.25.75,1.75a6.82,6.82,0,0,1,.19,2.38l2.23,0c.08-.09.14-.85.75-.88s1.34.12,1.46.57.34,1.39.48,1.31.58-.2.63-.36.14-1,.14-1" fill="#d1d3d4"/>
    <path d="M142.32,123.93c-.47-.19-.79,0-1.37,0s-1.23-.79-1.8-.65-2.17,1-3.1,1.44-3.75.94-4.94.36-2.23-1.48-3.35-1.87a13.06,13.06,0,0,0-4.07-.11,3.39,3.39,0,0,1-2.41-.47c-.61-.54-.65-.54-.69-1s-.11-.69-.65-.83-2.77-.58-3.42-.86-.83-.54-1.08-.4-1.48,1.55-1.3,2.05.9,1,.72,1.37a1.88,1.88,0,0,1-2,1.08c-1.26-.14-3.42-.5-3.86-1a6.55,6.55,0,0,0-2.49-.9,4.06,4.06,0,0,0-1.55.29,25.94,25.94,0,0,0-3.32,1.62,2.54,2.54,0,0,1-1.37.51c-.47,0-.86.47-1,.61a2.31,2.31,0,0,0,1,1.82c1,.61,2.34.79,2.95,1.78a3.33,3.33,0,0,1,.42,2.95c-.33,1.08.23,1.22,2.11,1.4s5.05,1.73,5.52,2.62,3.51,1.64,5.1,1.64,3.09-.19,4.16.42,4.12,1.59,5.33,1.12a16.26,16.26,0,0,1,5.24-1.36c2.15-.09,3-1.36,3.74-1.83s0-1.31.19-2,1.12-.94,2.43-.47,3.56-.94,4.4-1.5a7.32,7.32,0,0,1,3.27-1.54c.37,0,.79,0,1.18,0,.85,0,1.6.08,1.63-.21s-1.12-1.31-1.87-1.92-1.17-.84-1.54-.51a3.59,3.59,0,0,1-2.62.19c-.52-.33-.47-1-.14-1.64s1-2.17.62-2.33" fill="#d1d3d4"/>
    <path d="M78.76,147.64s2,.92,2,1.17a.92.92,0,0,0,.67,1,10.09,10.09,0,0,1,2.11.61s.9-.84,1.57-.82.88.39,1.32.49.88.06.85.28a5.33,5.33,0,0,1-.27.85A7.56,7.56,0,0,1,86,152.74c-.14,0-.54.25-.48.46s-.23.76-.23.76l.14.18.13.63c.13.63-.69.81-.81,1.13a2.9,2.9,0,0,0,.88,1.88c.37.19,1.94.75,2.38,1a.46.46,0,0,1,.2.2l.09.13s.77.06.87-.17.92,0,1.16.38a7.29,7.29,0,0,0,2.08,1.33c.63.25,1,.31,1.26.74a7.63,7.63,0,0,0,2.81,1.56,8.92,8.92,0,0,1,1.52.2,12.42,12.42,0,0,0,1.52.29l.1-.2c.19-.23.94-.19.89.19a4.27,4.27,0,0,0,.13,1.1v0a3.45,3.45,0,0,1,.34-.69c.25-.4.77-1.42,1.45-1.25s1.06.47,1.41.44.8,0,1,.22.77.19.77.19c.44,0,.88-.5,1.38-.88s1.63-1.44,2.19-1.44a3.51,3.51,0,0,0,1.31-.19c.69-.19,1.25-.06,1.5.44a2,2,0,0,0,1.13,1.25l.19.13s.59-.44.81-.1a3.27,3.27,0,0,0,1.22,1.22c.47.15.25,2.25.09,2.47s-1.35.94-1.44,1.5,0,.91.16,1-.31.56-.13.69.66,0,.88-.16,1.1-.06,1,.19-.25,1,.09,1.13.91.28.72.56-.37.94-.22,1.09,1.1.19,1.06.53.06.53.38.56a1.54,1.54,0,0,0,.56-.15c.28-.1.55-.21.66-.1s.25.34.06.53l.25.15a1.88,1.88,0,0,0,.75-.19c.38-.19-.47-1.22-.28-1.5s.84,0,.94-.47.56-.19,1.5,0a2.15,2.15,0,0,0,2.16-.84c.19-.47.85-.28,1.5-.09s1.5.47,1.69,1.31.38.85,1.13,1.13,1.32,0,2.16,0,1,.56.94.94.66,1.13,1,1.13.09-.66.09-1,.84-.38,1.6-.75a13.68,13.68,0,0,1,3.28-.94c.47,0,.19-.75.38-1s1.13.28,1.13.28a3.49,3.49,0,0,1,1.31-.37,10.69,10.69,0,0,0,3.1-1.69c.38-.28,1.13-.66,1.22-1s.84-.38,1.41-.85.85-2,1-2.63.75-.28.94-.84a5.25,5.25,0,0,1,1.78-2c.38-.09.19-1.88.28-2.44s-.75-.47-1.32-.85,1.5-1.5,1.41-2.44-1.12-.84-1.31-1.88a7.52,7.52,0,0,0-2.06-3.1c-.75-.75,2.63-3.28,3.56-3.47s.72-.82.72-.82c0-.34-.56-.15-1.71-.6s-1.6.52-2.65.67-1-.89-.89-1.3-.45-.3-1.45-.63-.07-1.6.75-1.6,2.5-1.45,3.35-2.24,2.35-.52,2.28.19-1.57,1.75-1,2.27,1.38-.6,1.9-1a7,7,0,0,1,2.46-.52,3.12,3.12,0,0,1,1-1,5.72,5.72,0,0,0,1.94-1.49,1.19,1.19,0,0,1,1.45-.56,1.71,1.71,0,0,0,1.34.15c.41-.15,0-1.16.63-1.16s1.68-1.3,2-1.71.85.3.85.3c.21-.07,1.19.14,1.19-1.37s.11-1.48-.11-1.87-.25-.72.4-1,1-.43,1-.33a2.42,2.42,0,0,1,.18.72c.07.4.65.72.86.25a4.85,4.85,0,0,1,.47-.72,14.58,14.58,0,0,0,1.15-2.45,3.64,3.64,0,0,1,.79-1.84c.36-.29.36-1.84,0-1.84a11.75,11.75,0,0,0-2.7,1.15,3,3,0,0,1-2.23,0c-.61-.32-.76-1.19-.83-1.69s-.54-.18-1-.61a3.72,3.72,0,0,0-1.37-.94c-.54-.18-1.48.11-1.91-.36a7.36,7.36,0,0,1-.86-1.76c-.36-.72-2.05-4.58-3.46-5a7.88,7.88,0,0,0-1.69-.36,6.72,6.72,0,0,0-3.21-.11c-1.44.29-2.67,1.15-2.31,1.37s1.26.58.86,1.15-2.12,3-2,3.39.07.54-.86,1-1.12.65-2,.47a12.89,12.89,0,0,1-1.84-.43c.38.15-.29,1.67-.62,2.33s-.37,1.31.14,1.64a3.59,3.59,0,0,0,2.62-.19c.38-.33.8-.09,1.55.51s1.92,1.5,1.87,1.92-.78.25-1.63.21c-.39,0-.81,0-1.18,0a7.32,7.32,0,0,0-3.27,1.54c-.84.56-3.09,2-4.4,1.5s-2.25-.19-2.43.47.51,1.5-.19,2-1.59,1.73-3.74,1.83A16.25,16.25,0,0,0,125.8,139c-1.22.47-4.26-.51-5.33-1.12s-2.57-.42-4.16-.42-4.63-.75-5.1-1.64-3.65-2.43-5.52-2.62-2.43-.33-2.11-1.4a3.33,3.33,0,0,0-.42-2.95c-.61-1-2-1.17-2.95-1.78a2.31,2.31,0,0,1-1-1.82l-.72.36a7.93,7.93,0,0,1-1.76,1.09c-.59.16-.7-.21-1.07,1.55s-2.57,1.34-3.21,1.18-.86.48-1.23,1.71-.64,1.44-2.57,1.71-.59,3.1-.91,3.69-.43,1.55-.64,1.34c0,0,.48.27-.14.7s-2.25,1.26-2.38,1.49a3.93,3.93,0,0,1-1.76.64c-.39,0-.85.73-1.1.89s-.85.3-1.1.09a1.21,1.21,0,0,0-1-.23c-.41,0-.8.69-1.17.73s-.62.07-.62.46,0,.71-.44.78c0,0,.08,1.48.31,1.48s1.32.07,1.36.52.16,1.63-.13,1.65c0,0-.46.23-.21.59" fill="#d1d3d4"/>
    <path d="M120.91,172.27s1,.8.93,1.18.25.8.83,1.12.38.13.7-.13.8.51,1.08,1a.7.7,0,0,1-.44,1c-.32,0-.38.22-.38.57s.67.54,1,.67.38.32.7.73,3,3.63,3.28,4.18.45,1.05.29,1.31a3.29,3.29,0,0,0-.22,1.69,8.59,8.59,0,0,1,.22,2.1c0,.54-.67.86-1.34,1.08s-1,.54-1,1.15-.38.35-.89.38-1.4.77-1.21.92.73.7.48,1.24-.19,1.08.19,1.15,1.05-.86,1.69-1.21.48-.54.32-.73.22-.29.57-.25a8.27,8.27,0,0,0,3.67-2.29c.89-1.18-.1-6-1.43-7.08a15.94,15.94,0,0,1-3.7-4.4c-.38-1,1-2.07,1.15-2.2s1.11-1.11,1.5-1.56,0-.69,0-.69c-.75-.28-.94-.28-1.12-1.13s-1-1.13-1.69-1.31-1.31-.37-1.5.09a2.15,2.15,0,0,1-2.16.85c-.94-.19-1.41-.47-1.5,0a.46.46,0,0,0,.05.59" fill="#d1d3d4"/>
    <path d="M128.69,184.48a3,3,0,0,1,.18-.6c.16-.26,0-.77-.29-1.31s-3-3.76-3.28-4.18-.38-.61-.7-.73-1-.32-1-.67.06-.57.38-.57a.7.7,0,0,0,.45-1c-.29-.45-.76-1.21-1.08-1s-.13.45-.7.13-.86-.73-.83-1.12-.93-1.18-.93-1.18l-.49-.29c-.2,0-.41,0-.5.16s.66,1.31.28,1.5a1.88,1.88,0,0,1-.75.19l-.25-.15-.66.74s-.56.24-.66.45-.12.35.21.54-.14,1,.23,1.15,1.15.28,1.1.61-.73,2.67-.14,2.77,1.13-1,1.67-.82a1.33,1.33,0,0,0,1.43-.24c.42-.42,1.45-.07,1.83.68s.52.91.52,1.43a1.52,1.52,0,0,0,.77,1.27,1.05,1.05,0,0,1,.49,1.24,2.45,2.45,0,0,1-.4,1.22c-.21.21-.3.42.33.68s.75.38.89-.19.42-.75.73-.54,1.07.15,1.15-.2" fill="#d1d3d4"/>
    <path d="M131.95,178.69c-.18,0-1.22-.19-1.24-1.05s.54-1.43,1.69-1.6,1.76-.19,1.78.19-.66,1.27-.73,1.6-1.29.91-1.5.87" fill="#d1d3d4"/>
    <path d="M124.4,191.11a2,2,0,0,1,1.23-.82c.51,0,.89.22.89-.38s.35-.92,1-1.15,1.31-.54,1.34-1.08a8.59,8.59,0,0,0-.22-2.1,1.52,1.52,0,0,1,0-.73l-.06-.18a1.06,1.06,0,0,1-1,0c-.3-.21-.59,0-.73.54s-.26.45-.89.19c-.4-.16-.51-.3-.48-.44a9.64,9.64,0,0,0-1.25-.1,4.71,4.71,0,0,1-1-.08c-.24,0-1,0-1.2.29a4.12,4.12,0,0,1-.61.95.76.76,0,0,0-.23.8,9.09,9.09,0,0,1,.45,1.15,2.32,2.32,0,0,0,.34,1.07c.21.25,0,.79.21.93s.73-.18.83,0-.35.76.08.77.83,0,.93.06a2.74,2.74,0,0,0,.41.3" fill="#d1d3d4"/>
    <path d="M115.32,190.95s.75-1.28,1.13-1.88a1.8,1.8,0,0,0-.22-1.78,2.38,2.38,0,0,1-.09-1.31c0-.41-1.06-1.66-1.22-2s.41-.66.41-1,.34-.91.34-1.22-.47-.69-.91-1.19a7.12,7.12,0,0,1-1.1-2c-.06-.31.34-.38.38-.56a4.85,4.85,0,0,1,.16-1.19c.16-.41.63-.44,1.22-.5s1.5-1,1.75-1,.63.28.53,0l.39.13c.33.19-.14,1,.23,1.15s1.15.28,1.1.61-.73,2.67-.14,2.77,1.13-1,1.67-.82a1.33,1.33,0,0,0,1.43-.23c.42-.42,1.45-.07,1.83.68s.52.91.52,1.43a1.52,1.52,0,0,0,.77,1.27,1.05,1.05,0,0,1,.49,1.24,2.45,2.45,0,0,1-.4,1.22l-.16.24a9.63,9.63,0,0,0-1.25-.1,4.71,4.71,0,0,1-1-.08c-.24,0-1,0-1.2.29a4.12,4.12,0,0,1-.61.95.76.76,0,0,0-.23.8,9.09,9.09,0,0,1,.45,1.15,1,1,0,0,1-1-.12c-.56-.38-1.31-.44-1.69-.88s-1.06.19-1.12,1.13-1.94,3.63-1.31,4.32,1.06.56,1.31,1.94.75,1.94,1.63,2.06a1.25,1.25,0,0,1,1,1.06,1.62,1.62,0,0,1-1.25-.06c-.69-.31-1.25-.88-1.75-.56,0,0-1.62-2.62-2.12-2.5s-.69-.44-.57-.94l.63-2.47" fill="#d1d3d4"/>
    <path d="M117.38,196.86c.5-.31,1.06.25,1.75.56a1.62,1.62,0,0,0,1.25.06s.41-.1.88.42.34.46.67.67a2.57,2.57,0,0,1,.74,1.76,4,4,0,0,0,.44,2.69c.75,1,.56,1.88,0,1.88s-3.38-2-3.66-2.82-1.59-2.81-1.59-3.57a4.4,4.4,0,0,0-.47-1.66" fill="#d1d3d4"/>
    <path d="M87.64,197.67c-.67-.11-.84-2.06-.75-3.28s.19-3.19,2.06-.38-.75,3.75-1.31,3.66" fill="#d1d3d4"/>
    <path d="M163.77,137.12s-.55-.71-.85-.3-1.38,1.71-2,1.71-.23,1-.63,1.16a1.71,1.71,0,0,1-1.34-.15,1.19,1.19,0,0,0-1.45.56,5.72,5.72,0,0,1-1.94,1.49,3.12,3.12,0,0,0-1,1,8.62,8.62,0,0,0,1.07.48.61.61,0,0,1,.33.82c-.11.2-.78,1.45-.67,1.71s.83.37,1.35.48,1.43.32,1.43.32.48-.87,1-.91,1.43,0,1.46-.39-.22-.48-.63-.78a1,1,0,0,1-.41-1.37c.32-.48,3-1.54,3.1-1.89s0-.82.22-1.26,0-.48.59-1,.91-.8.91-.8l-.55-1" fill="#d1d3d4"/>
    <path d="M160.54,145.14c0,.37-.91.35-1.46.39s-1,.91-1,.91.26.89,0,1.11a.9.9,0,0,0-.26,1.32c.48.67.11,1.17-.11,1.74s-.24,1.58.26,1.56,1.82-1,2.71-1a1.61,1.61,0,0,0,1.58-1.5,4.89,4.89,0,0,0-.13-1.78c-.24-.43-1.6-2.73-1.6-2.73" fill="#d1d3d4"/>
    <path d="M165.05,157.18c-.17.3-.41.56-.69.35s-.5-.17-.8-.26-.24-1-.07-1.39-.39-.56-.72-.89-.35-1.13-.07-1.21,1.32-.69,1.6-.63.43.59.76.59.74.61.76.85a5.7,5.7,0,0,1-.33,1.22c-.13.45-.45,1.39-.45,1.39" fill="#d1d3d4"/>
    <path d="M169.67,153.76c-.15.15-.72,0-1.11.17s-.52,1-1.17.87-.85-.74-.33-1.26,1.15-.5,1.39-.65.72-.43,1-.35a.81.81,0,0,1,.45.89c-.11.28-.26.33-.26.33" fill="#d1d3d4"/>
    <path d="M171.15,151.76a5.37,5.37,0,0,0-2.5.24,2.94,2.94,0,0,1-1.58.28c-.35-.07-.37.41-.71.54s-.42-.11-.91-.11-.87.3-.93-.11,1.54-1,2-1.56,1.19-.65,2.36-.72a7.93,7.93,0,0,0,1.87-.35.71.71,0,0,1,.43.15c.13.11,1.17-.09,1.19-.37a1.36,1.36,0,0,1,.54-1.09c.43-.26.45-1.63,1-1.58s-.06,1.08.78.72a8.29,8.29,0,0,0,3.19-3.23c.41-1.13.57-1.32.44-1.76s-.13-1.63.28-2,.17-.37.69-.33a1,1,0,0,0,.63-.26c.25-.19.47-.38.63-.19s-.17.91.24,1.74a2.88,2.88,0,0,1,.24,2.47c-.35.74-.09,1.13-.39,1.21a1.06,1.06,0,0,0-.67,1.11,3.2,3.2,0,0,1-.46,1.71c-.3.56,0,1.17,0,1.52s-.67,1-1.09,1.22a6.19,6.19,0,0,0-1.21.52c-.13.15-.3.33-.8.15a2.85,2.85,0,0,0-1.07-.06,5.85,5.85,0,0,1-.75,0c-.65,0-.85-.46-1.11-.33s-.48.26-.3.54.09.5-.35.87-.85,1-1.43.7-.56-.85-.22-1.13-.06-.59-.06-.59" fill="#d1d3d4"/>
    <path d="M183.75,68.13c-.31.44-.75.38-2.25.13a20.18,20.18,0,0,1-2.94-.37c-.44-.25,1.06-1.31,1.69-1.44s1.94-.44,2.69.44a3.36,3.36,0,0,1,.81,1.25" fill="#d1d3d4"/>
    <path d="M185.63,62.12c-.39.11-1.06,1.38-2.13,1.38a18.81,18.81,0,0,0-3.75,0c-.94.25-.06.56-.94.25a1.41,1.41,0,0,0-1.5.25c-.19.13-3.13-.5-3.5-1.56s2.31-2.94,3.44-2.88,1.88,1.88,2.44,1.31a2.14,2.14,0,0,1,2.19-.88c1.06.25,2.75.69,3.44.75s.75,1.25.32,1.38" fill="#d1d3d4"/>
    <path d="M192,64.06a6.8,6.8,0,0,1-2.07-.81c-.44-.25-1.69-.19-1.81-.88s.13-.94,1-.69a4.47,4.47,0,0,0,2,.13c.69-.06-.25.56.94.56s2.94.56,2.5,1.19-2.56.5-2.56.5" fill="#d1d3d4"/>
    <path d="M240.79,75.07c-.55-.11-2.38.25-3.06.13s-1.19-1.44.38-1.69,5.13-.06,4.82.69a2.07,2.07,0,0,1-2.13.88" fill="#d1d3d4"/>
    <path d="M183.56,130.3c-.31.13-1.07,0-1.5.5s-1.06.94-1.06-.44a52.44,52.44,0,0,0,.5-5.32c0-1.81.31-2.94-.12-4.13a5.75,5.75,0,0,1-.12-3.07c.13-1,.69-.81.75-1.31s.75-1.44.81-1a5.56,5.56,0,0,0,.44,1.88c.25.25-.19,1.25.13,2.63s1.5,5.19,1.25,5.38-1.12-.19-1.56.75a3.23,3.23,0,0,0-.37,2.38c.25.38.88,1.75.88,1.75" fill="#d1d3d4"/>
    <path d="M180,139.12c-.37.25-1.56,1.13-1.62.63s-.63-1.13-.44-1.69,1.06-.5,1.13-1.13.63-.06,1.06-.69a4,4,0,0,0,.88-2.44c-.12-.75-.13-1.06.13-1.19s1.19,1,2,1.63,3.13.31,3.25.81.75,1.5.25,1.69-1.81-.06-2.38.63-.5,1.94-1.31,1.44a6.48,6.48,0,0,0-2.69-.81c-.56,0-1.38.19-1.06.38a5.22,5.22,0,0,1,.81.75" fill="#d1d3d4"/>
    <path d="M18.73,154.37c-.34,0,.7-1.78,1-2.25.11-.16.17-.62.29-.58a2.16,2.16,0,0,1,.69.39c.34.27-.27,1-.41,1.21a3.89,3.89,0,0,1-.77,1,1.15,1.15,0,0,1-.83.26" fill="#d1d3d4"/>
    <path d="M20,151.51a6.71,6.71,0,0,1-.38-1.31c0-.33.33-.61.8-.75a14.14,14.14,0,0,1,1.78-1,7.44,7.44,0,0,1,1.64-.09c1-.14,5.49-1.36,5.72-1.13s-.09,1.08-.75,1.27-.89,2-.89,2.82-1.46,1.41-2.35,1.92a34.24,34.24,0,0,1-4.46,2.3,8.32,8.32,0,0,1-1.74-.56s0-.34.12-.73c0-.12.13-.2.21-.3.33-.42,1.45-1.69,1-2a2.49,2.49,0,0,0-.75-.42" fill="#d1d3d4"/>
    <path d="M19.38,155.23s-.19,2.33-.21,2.48-.59,2.51-.64,2.57-.25-.65-.4-.9-.43-1.07-.53-1.32-.31-.58-.14-.69a10.91,10.91,0,0,0,1-2.08c0-.23.28-.92.28-.92a1,1,0,0,0,.68-.16l.13-.07a4.64,4.64,0,0,0-.15.83Z" fill="#d1d3d4"/>
    <path d="M19.22,157.12c.06-.46.09-1.1.13-1.51,0,0-.82-.3-.71.33s-.25,1.3-.14,1.33a1.92,1.92,0,0,0,.72-.15" fill="#d1d3d4"/>
    <path d="M18.52,160.28c0-.08.61-2.42.64-2.57s.21-2.48.21-2.48V155l.13.06a7,7,0,0,0,1.6.51A19,19,0,0,0,24.26,154a12.3,12.3,0,0,1,.4,1.19c0,.2.28.62.25.72a.78.78,0,0,1-.65.41c-.46.08-2.72.61-2.5.91s1.43,1.29,1,1.71-.48.66-1,.76-1.5,1.18-1.9,1.16a3.22,3.22,0,0,1-.89-.27c-.1,0-.52,0-.47-.3" fill="#d1d3d4"/>
    <path d="M24.91,155.89c0-.09-.22-.52-.25-.71a12.3,12.3,0,0,0-.4-1.19l1.32-.75c.89-.52,2.35-1.08,2.35-1.92s.23-2.63.89-2.82a1.18,1.18,0,0,0,.82-1.13l.07-.08a9.77,9.77,0,0,0,1.69,0c.56,0,1.22.38,1.64.19,0,0,.16,0,.5.66s.88,1.5,1.56,1.66,0,1.44-.41,2.16.44,2.47,1.78,3.28A3.59,3.59,0,0,1,38.32,158a5.78,5.78,0,0,0,.34,1.5,1.91,1.91,0,0,1-.44,0c-.16,0-1.22-.28-1.41.31a1.7,1.7,0,0,1-.75,1,6.78,6.78,0,0,1-3.06-.25c-.59-.41-3.72-2.85-4.44-3.28a10.09,10.09,0,0,0-2.06-1.13c-.35,0-1.59-.31-1.59-.31" fill="#d1d3d4"/>
    <path d="M36.07,160.86a6.78,6.78,0,0,1-3.06-.25c-.59-.41-3.72-2.85-4.44-3.28a10.09,10.09,0,0,0-2.06-1.13c-.35,0-1.59-.31-1.59-.31a.78.78,0,0,1-.65.41c-.46.08-2.72.61-2.5.91s1.43,1.29,1,1.71-.48.66-1,.76-1.5,1.18-1.9,1.16a3.22,3.22,0,0,1-.89-.27,1.12,1.12,0,0,1-.39-.11s-.81,2.35-.31,2.38,3.25,4.22,3.72,5.19,2.35,2.35,2.57,3.91a6.2,6.2,0,0,0,2.35,3.94c1,.59,1.19,2.5,1.85,3.16s1.28,2.5,1.66,2.47,1.22-1.75,3.88-1.35,2.69.09,4.41-1.31,6.44-.84,10.1-2.94a17.17,17.17,0,0,0,1-3.16c-.09-.41-.34-1.13-.59-1.1s-3.56-.16-4-.56-1-1.56-1.34-1.81a7.4,7.4,0,0,0-.91-.72,3.76,3.76,0,0,1-1.41-1.88,3.3,3.3,0,0,0-1.19-2.35c-.94-.69-1.44-2.19-1.66-2.19s-.87.19-1.16-.22a6.86,6.86,0,0,0-1.47-1.1" fill="#d1d3d4"/>
    <path d="M42.48,167.83s.16-1.78.59-1.85.72,1.47.47,1.94-.43.68-.62.62a1,1,0,0,1-.41-.33.8.8,0,0,1,0-.39" fill="#d1d3d4"/>
    <path d="M38.69,162.17c-.22,0-.88.19-1.16-.22a6.86,6.86,0,0,0-1.47-1.1l.24-.17a1.89,1.89,0,0,0,.52-.83c.19-.59,1.25-.34,1.41-.31a1.91,1.91,0,0,0,.44,0,2,2,0,0,0-.22,1.44,3.32,3.32,0,0,1,.25,1.19" fill="#d1d3d4"/>
    <path d="M49,171.68c-.8,0-3.4-.21-3.82-.56a12.8,12.8,0,0,1-1.14-1.6,24.62,24.62,0,0,1,3.28-.37c.84,0,1.13-.85,1.92-1.69s1.22-1.45,1.31-1.17.51,1.55.28,1.69A8.47,8.47,0,0,0,49.78,170c-.14.42-.77,1.64-.77,1.64" fill="#d1d3d4"/>
    <path d="M44.64,177.38c1.33-.55,2.87-.69,4.19-1.45a17.17,17.17,0,0,0,1-3.16c-.09-.41-.35-1.13-.6-1.1H49s.63-1.22.77-1.64A8.47,8.47,0,0,1,50.86,168s1,1.74,2,1.88,3.43,1.69,3.28,2.3-2.08,2.4-2.6,3.57a11.72,11.72,0,0,1-3.71,4.1,12.59,12.59,0,0,1-3.6,1.15,4.24,4.24,0,0,1-1-1.55l-.59-2" fill="#d1d3d4"/>
    <path d="M30.44,181.53c.38,0,1.22-1.75,3.88-1.34s2.69.09,4.41-1.31c1.05-.86,3.23-1,5.6-1.43l.32-.06.59,2a4.24,4.24,0,0,0,1,1.55s-1.67.72-1.8,1.66-4.6,2.35-5.32,2.72-3.91,1-4.53,1.47-2.75,1.41-3.07.44a17.54,17.54,0,0,1-1-3.38c-.09-1.07-.06-2.35-.06-2.35" fill="#d1d3d4"/>
    <path d="M33.08,142.88c-.14.33-1,.28-.8.84s0,2.2.33,2.44.84,1.13.42,1.31" fill="#d1d3d4"/>
    <path d="M30.92,140.25c-.61-.56-2-.33-2.3-.23,0,0,.09-.41.18-1a3.93,3.93,0,0,0-1.16-2.27c-.37-.24-1.7-.65-1.51-1a1.28,1.28,0,0,1,1.61,0c.47.43,2.69.88,3.37,1.1s.91.7,1.08.7a3.39,3.39,0,0,1,1.66-.08c.63.24.82.52.89.76s1.15.86,1.09.95.31.95-.07,1.06-1.36-.42-1.6-.32-.34.34-.46.34-1.46.16-1.77.18a2.74,2.74,0,0,1-.69-.06Z" fill="#d1d3d4"/>
    <path d="M33.06,142.76c-.23-.22-1.37-.41-1.58-.78s.06-1.09-.3-1.6h.06a2.74,2.74,0,0,0,.68.06c.31,0,1.66-.18,1.77-.18s.89.65,1,1.22a4.79,4.79,0,0,0,1.13,1.7,1.94,1.94,0,0,1,.32,1.08c-.21.1-.69.27-.74.09s-.35-1-.73-1.14a6.8,6.8,0,0,0-1.2-.48c-.18,0-.4.07-.44,0" fill="#d1d3d4"/>
    <path d="M35.44,144.36a1.94,1.94,0,0,0-.73-1.14,6.81,6.81,0,0,0-1.2-.48l-.21,0a1.55,1.55,0,0,0,.56.92c.48.36.55.7.77.71s.82.07.81,0" fill="#d1d3d4"/>
    <path d="M38.66,159.54a5.77,5.77,0,0,1-.34-1.5,3.58,3.58,0,0,0-1.85-2.81c-1.34-.81-2.22-2.57-1.78-3.28s1.09-2,.41-2.16-1.22-1-1.57-1.66-.5-.66-.5-.66l.07,0c.28-.26-.23-1-.49-1.27s-.09-1.88-.33-2.44.72-.49.83-1l.18,0a2.1,2.1,0,0,0,.57.88c.48.36.55.7.77.71a5.18,5.18,0,0,0,.71,0l.15,0c.11.07.32,0,.51-.05,0,0,2.13-1.47,2.33-1.32s.5.8.32,1-.64.18-.21.53a3.67,3.67,0,0,0,1.13.71s.06,1.35.49,1.68a1.18,1.18,0,0,0,.79.13c.29,0,.57,0,.7.15a2.87,2.87,0,0,0,2.18,1.25,16.49,16.49,0,0,0,3.44-.34c.34-.09.25-.63.19-.84s1.19-.37,1.22-.5a3.26,3.26,0,0,1,3.57-1c2.25.63,6,2.6,6.1,2.94a12.19,12.19,0,0,1,.28,1.5,21.49,21.49,0,0,1-1,2.28c-.25.44.19,2.56.22,3.22a1.45,1.45,0,0,0,.81,1.44c.53.16,1,.53.63,1.06s-1.25,1.22-1.19,1.41.94,2.16,1.47,2.38,1.53.59,1.56,1.1-.1.91.19,1.06.47.81.28.91-2.1.31-2.25,1.16,0,1.22-.25,1.25-6.13-.78-6.51-1.31,0-1.69-1-1.84a2.9,2.9,0,0,0-1.52.42,2.55,2.55,0,0,1-1.83.36c-1.09-.37-4.44-1.78-4.85-2.47s-.59-1.69-1.09-2.6-1.16-.91-1.38-.85-.16-.18-.28-.39a.6.6,0,0,0-.85-.33c-.39.16,0,1-.25,1l-.75.06" fill="#d1d3d4"/>
    <path d="M39.57,145.27a3.67,3.67,0,0,1-1.13-.71c-.43-.35,0-.35.21-.53s-.12-.82-.32-1-1.62.83-2.14,1.19l0-.11a1.68,1.68,0,0,0-.31-.94,4.79,4.79,0,0,1-1.13-1.7c-.14-.58-1-1.22-1-1.22s.22-.24.46-.34,1.21.43,1.6.32,0-1,.07-1.06,1.07.29,1.2.63a.83.83,0,0,0,1,.36c.21-.18,1-1.11,1.16-1a3.88,3.88,0,0,1,.87,1.31,1.39,1.39,0,0,0,1.13.81c.54,0,.86.39.65.54s-1.31.06-1.37.69,0,1.23-.25,1.38a1.4,1.4,0,0,0-.63,1.36" fill="#d1d3d4"/>
    <path d="M50.35,140.15a4.75,4.75,0,0,0-.7-.05c-.37,0-.75-.53-.75-1.07s-1.12-1.07-2.09-1a2.66,2.66,0,0,0-1.55.75s-.21.64-.05.64,1.93-.7,2.51.48.11,1.66-.75,1.55-1,.64-.21.91a1.58,1.58,0,0,1,.86,1.6c-.05.38-.85,2.33-.26,3.28-.06-.22,1.19-.37,1.22-.5a3.26,3.26,0,0,1,3.57-1c2.25.63,6,2.6,6.1,2.94a12.2,12.2,0,0,1,.28,1.5s1.62.63,2.37.1,1.93-.8,2.62-1.71a3.29,3.29,0,0,1,3.16-1.66s.75-.8-.43-1.23-5.67-2.89-6-3.53-.48-1.87-1.12-2a3.2,3.2,0,0,0-.73,0A2.09,2.09,0,0,1,57.2,140c-.64-.32-.54-1.39-1-1.77a2.83,2.83,0,0,0-1.93-.48,3.26,3.26,0,0,0-1.82,2.09c-.06.8-2.09.27-2.09.27" fill="#d1d3d4"/>
    <path d="M52.44,139.89c-.06.8-2.09.27-2.09.27" fill="#d1d3d4"/>
    <path d="M29.56,147.24c-.28-.18-4.69,1-5.72,1.13a7.44,7.44,0,0,0-1.64.09,14.14,14.14,0,0,0-1.78,1,1.49,1.49,0,0,0-.58.31,1.15,1.15,0,0,1,.21-1c.38-.37.14-1-1.46-.7s-2.39,1.5-3.38,1.27-2.72-1.69-3.52-.89S8,148.22,6.9,146.49s-.66-2.44-1-2.77-1.22-.47-.56-1.27,3.42-.33,4.13-.61,1.27-.66.61-.94.19-.56,1.22-.42,1,.23,2.67-.52a9.49,9.49,0,0,1,4.55-.75c.42.19,3.89,2,6.43,1.83a8.24,8.24,0,0,0,3.71-1c.33-.09,1.69-.33,2.3.23l.28.18c.36.53.08,1.19.28,1.56s1.74.56,1.6.89-1,.28-.8.84,0,2.2.33,2.44.84,1.13.42,1.31-1.08-.19-1.64-.19a5.71,5.71,0,0,1-1.83,0" fill="#d1d3d4"/>
    <path d="M17.55,131s.33,1.13,1.26,1.31,1.92.7,1.46.89a22.74,22.74,0,0,0-2.82,1c-.61.38-1.08.33-1.22-.14a3.61,3.61,0,0,0-1.17-1.41c-.47-.37.61-.66,1.17-.89a.56.56,0,0,0,.28-.8l1,0" fill="#d1d3d4"/>
    <path d="M125.82,52.12c-.75.25-3.85.73-5.3,1s-2.39,1-3.12.62,1.77-4,3-4.16-.93.94.62,1,1.46-.73,2.5-.31,2.91,1.56,2.29,1.77" fill="#d1d3d4"/>
    <path d="M116.88,51.19c-1.56,0-5.51-.83-7-.94s-1.46-1.46-2.08-1.46.62-1.66,2.08-1.77,2.91-.73,3.74-.21,2,0,2.91.21.94,1.46.63,2,.83,2.18-.31,2.18" fill="#d1d3d4"/>
    <path d="M107,47.34c-.94,0-2.5.21-1.14-1.35s.93-2.29,2.39-2.7,2.08-.73,2.7-.31,1.77,1.56,1.56,1.87-2.81.52-3.64,1.14S107,47.34,107,47.34" fill="#d1d3d4"/>
    <path d="M143.31,124.19l-.51-.11q-.09-2.23-.09-4.46a109.76,109.76,0,0,1,13.53-52.83l.5.13a109.26,109.26,0,0,0-13.53,52.71q0,2.29.1,4.57m17,.34a1.21,1.21,0,0,1-.51-.15q-.12-2.39-.12-4.82A92.12,92.12,0,0,1,172.25,73l.56,0a91.62,91.62,0,0,0-12.62,46.55q0,2.5.13,5" fill="#d1d3d4"/>
    <path d="M143.3,130.91q-.15-1.43-.26-2.85l.5-.05c.07.89.15,1.78.24,2.67l-.48.24" fill="#d1d3d4"/>
    <path d="M143,128.05c-.1-1.32-.18-2.65-.23-4l.5.11q.08,1.91.23,3.81l-.5.05m18.53,10.18a92.47,92.47,0,0,1-1.76-13.86,1.21,1.21,0,0,0,.51.15A92.18,92.18,0,0,0,162,137.86a4.59,4.59,0,0,1-.43.38m-16.13,5.7a109.64,109.64,0,0,1-2.15-13l.48-.24a109.09,109.09,0,0,0,2.16,13.18,1.19,1.19,0,0,1-.39.08h-.1m1.84,7q-.76-2.55-1.39-5.13c.29.07.42.14.36.36s-.14,1.23.58,1.31q.39,1.48.83,3a3.3,3.3,0,0,0-.37.5m2.42,7.18q-1.11-3-2-6a11.41,11.41,0,0,1,.86,1.06q.74,2.27,1.57,4.51l-.38.4m.78,2-.25-.62a.38.38,0,0,1,.27.43c0,.05,0,.12,0,.19" fill="#d1d3d4"/>
    <path d="M162.28,141.39q-.38-1.57-.7-3.15a4.59,4.59,0,0,0,.43-.38c.2,1,.41,2,.65,2.94a1.36,1.36,0,0,1,0,.31c0,.07-.14.16-.33.28" fill="#d1d3d4"/>
    <path d="M167.14,154.72a.61.61,0,0,1-.33-.8l.33.8" fill="#d1d3d4"/>
    <path d="M166.16,152.86a1.1,1.1,0,0,1-.34-.09l-.37-1,.44-.26.49,1.28h0a.55.55,0,0,1-.19,0" fill="#d1d3d4"/>
    <path d="M179,63.81l-.18-.06a1.92,1.92,0,0,0-.34-.09q1.44-1.9,3-3.72a2.31,2.31,0,0,1,.42.06l.15,0q-1.57,1.85-3,3.78" fill="#d1d3d4"/>
    <path d="M79.83,155.89h0l.1-.21-.1.21" fill="#d1d3d4"/>
    <path d="M79.93,155.69h0v0" fill="#d1d3d4"/>
    <path d="M75.68,76.4q-2.07-3.5-4.46-6.78a2.89,2.89,0,0,1,.46-.22q2.1,2.9,4,6c0,.36,0,.7,0,1M87.41,122q0-1.22,0-2.46A84.59,84.59,0,0,0,78.72,82a.94.94,0,0,1,.38-.36,85.1,85.1,0,0,1,8.84,37.89q0,.94,0,1.87c-.16.22-.29.54-.51.59" fill="#d1d3d4"/>
    <path d="M86.18,137.41l-.47-.2A82.46,82.46,0,0,0,87.41,122c.23-.05.35-.38.51-.59a83.43,83.43,0,0,1-1.75,16" fill="#d1d3d4"/>
    <path d="M85.16,139.63q.3-1.2.55-2.42l.47.2q-.2.94-.42,1.87l-.6.35" fill="#d1d3d4"/>
    <path d="M81.09,151.83q.41-1,.79-1.94l.49.11q-.3.76-.61,1.52c-.24.12-.47.23-.67.3" fill="#d1d3d4"/>
    <path d="M79.94,155.67l.1-.23-.45-.21q.79-1.71,1.5-3.4c.19-.08.43-.18.67-.3q-.85,2.05-1.82,4.14" fill="#d1d3d4"/>
    <path d="M82.37,150l-.49-.11a80.15,80.15,0,0,0,3.28-10.27l.6-.35A80.52,80.52,0,0,1,82.37,150" fill="#d1d3d4"/>
    <path d="M70.72,112.9l-.51,0A67.65,67.65,0,0,0,58.15,80.4a.27.27,0,0,0-.09-.26L57.84,80l-.72-1a.35.35,0,0,1,.07-.11l.25-.3A68.17,68.17,0,0,1,70.72,112.9" fill="#d1d3d4"/>
    <path d="M67.6,140.3a1.36,1.36,0,0,1-.28,0,67.82,67.82,0,0,0,3.22-20.71q0-3.39-.33-6.7l.51,0q.32,3.29.32,6.66a68.37,68.37,0,0,1-3.2,20.73l-.24,0" fill="#d1d3d4"/>
    <path d="M65.91,145.58l-.46-.21q1-2.5,1.86-5.1a1.36,1.36,0,0,0,.28,0l.24,0q-.86,2.7-1.93,5.3" fill="#d1d3d4"/>
    <path d="M72.16,151.76l-7.89-3.68-.11.23.36-.79a3,3,0,0,1,.74-.43c-.18.4-.36.8-.54,1.2l7.43,3.47" fill="#d1d3d4"/>
    <path d="M64.53,147.53q.48-1.07.93-2.15l.46.21q-.31.76-.65,1.52a3,3,0,0,0-.74.43" fill="#d1d3d4"/>
    <path d="M79,156.44l.36-.76.45.21v0a2.71,2.71,0,0,0-.81.53m-1.62,3.19q.75-1.4,1.45-2.85a.64.64,0,0,0,0,.12c0,.71,0,.82-.69,1.73l-.75,1m-5.94,9.55q.69-1,1.36-1.95a2.44,2.44,0,0,1,.26.5l-.92,1.32a3,3,0,0,1-.71.13" fill="#d1d3d4"/>
    <path d="M73.08,167.73a2.44,2.44,0,0,0-.26-.5,85.27,85.27,0,0,0,4.58-7.6l.75-1c.67-.92.69-1,.69-1.74a.64.64,0,0,1,0-.12l.17-.34a2.71,2.71,0,0,1,.8-.53,86.07,86.07,0,0,1-6.74,11.82m-2.47,3.44-.43-.27q.65-.85,1.28-1.73a3,3,0,0,0,.71-.13q-.77,1.08-1.56,2.13" fill="#d1d3d4"/>
    <path d="M59.26,158a.55.55,0,0,0,0-.1.59.59,0,0,0-.25-.45,67.94,67.94,0,0,0,5.14-9.1l-.11.23.45.21A68.45,68.45,0,0,1,59.26,158m-1.2,1.71-.1,0v0c0-.15.41-.51.78-.9l-.68,1" fill="#d1d3d4"/>
    <path d="M58,159.75l0-.11.1,0-.06.08" fill="#d1d3d4"/>
    <path d="M34.45,180.21l-.13,0a5.19,5.19,0,0,0-.78-.06h0a68.06,68.06,0,0,0,13-8.66l.67.08a68.71,68.71,0,0,1-12.7,8.66" fill="#d1d3d4"/>
    <path d="M47.15,171.55l-.67-.08q2.29-1.94,4.4-4.08c.06.29.07.54,0,.6a1.62,1.62,0,0,0-.33.47q-1.63,1.61-3.38,3.1" fill="#d1d3d4"/>
    <path d="M50.53,168.44a1.62,1.62,0,0,1,.33-.47l.05.09-.39.38" fill="#d1d3d4"/>
    <path d="M30.43,182.16c0-.25,0-.45,0-.55q1.57-.71,3.09-1.49h0a5.19,5.19,0,0,1,.78.06l.13,0q-2,1-4,2" fill="#d1d3d4"/>
    <path d="M52.62,166.29a.45.45,0,0,1-.16-.12,1,1,0,0,1-.13-.3,68.21,68.21,0,0,0,6.7-8.46.59.59,0,0,1,.25.45.55.55,0,0,1,0,.1l-.52.76c-.37.38-.78.75-.78.9v0l0,.11a68.94,68.94,0,0,1-5.39,6.54" fill="#d1d3d4"/>
    <path d="M64.39,148.42l-.11.23.11-.23m8.63,4.3-8.5-4-.45-.21.11-.23.11-.23,7.89,3.68,1.4.65a1,1,0,0,1-.54.3" fill="#d1d3d4"/>
    <path d="M79.83,155.89l-.45-.21-6.36-3a1,1,0,0,0,.54-.3l4.93,2.3a2.94,2.94,0,0,0,.37.41,8.12,8.12,0,0,0,1.06.56l-.1.21" fill="#d1d3d4"/>
    <path d="M79.93,155.69a8.11,8.11,0,0,1-1.07-.56,2.94,2.94,0,0,1-.37-.41l1.1.51.45.21-.11.23v0" fill="#d1d3d4"/>
    <rect x="6.27" y="105.43" width="2.81" height="5.82" fill="#d1d3d4"/>
    <rect x="12.94" y="117.43" width="2.58" height="1.93" fill="#d1d3d4"/>
    <rect x="21.29" y="131.67" width="1.9" height="2.43" fill="#d1d3d4"/>
    <rect x="14.6" y="130.91" width="6.15" height="3.49" fill="#d1d3d4"/>
  </g>
</svg>
