<svg id="6132d9bc-c964-4678-91ae-6a17b5227ff3" data-name="Layer 3" xmlns="http://www.w3.org/2000/svg" width="259.34" height="259.34" viewBox="0 0 259.34 259.34">
  <title>latinAm</title>
  <g>
    <path d="M149.68,100.9a5.83,5.83,0,0,1-1.49,1,15.35,15.35,0,0,0-1.81,1c-.34.21-.65-.34-1.15-.28s-1.79-.72-1.45,0,.6,2.28,1.56,2.39-.58,1.06-1.47,1.43-2.06,1.33-2.44,1.16-2.12-1.89-2.2-2.66a1.26,1.26,0,0,0-.24-.67c-.23-.36,0-.81-.24-1.53a3.43,3.43,0,0,1,0-2.54c.45-.63.81-1.12-.72-1.12s-1.37.29-2.69-.76a2.69,2.69,0,0,0-2.68-.47c-.5,0-1.14,0-1.27-.89s.15-1.65-.54-2.17-.3-1.32,0-2,.91-1.52,1.15-1.37.83,1,.67,1.32-.46,1.12,0,1.2c0,0,1.4.87,1.63-.64.17-1.07-.37-1.74.54-2a3.86,3.86,0,0,1,2.42,0c.44.24.42.4.55.78s.82.57,2,.32,1.35.11,1.57.3a2.46,2.46,0,0,0,2.22.28,11.32,11.32,0,0,1,3-.72c.08.12-.42.64,1,1.23s1.53.63,1.68,1.19c.25.9,1.59.88,1.59,1.15s-1,.74-1.11.95.57,1.28-.08,1.42-1.48,1.05-1.06,1.52,1.18,1,1.06,1.27" fill="#d1d3d4"/>
    <path d="M139.23,104.91a.81.81,0,0,0-.17-.55c-.32-.48-.09-.93-.31-1.65a3.43,3.43,0,0,1,0-2.54c.45-.63.81-1.12-.72-1.12l-.68,0c-.84,0-.93.08-2-.78a2.69,2.69,0,0,0-2.68-.47c-.5,0-1.14,0-1.27-.89s.15-1.66-.54-2.17-.3-1.32,0-2,.91-1.53,1.15-1.37l.09-.27a1.33,1.33,0,0,1,.46-.41c.38-.26.95-.55,1-.8s-.15-.42-.53-.44-1.75,1.35-2.65,1.6-1.91,1-2.2.65-.17-.11-.93.41-.4,1.68-.74,1.79a1.62,1.62,0,0,0-1.15.83c-.21.56-.73,1.11-1,.82-.11-.11-.24,0-.36.17a4.58,4.58,0,0,0-.38.74c0,.11-.09.21-.12.29a1,1,0,0,0,.36,1.25c.48.45,0,1.94.12,3.6a2.72,2.72,0,0,1-1.33,2.66,5.23,5.23,0,0,0-1.06,1.8c-.12.3,2.56,1.68,3,2a1,1,0,0,0,1.11-.12c.23-.13,1.66.84,2.1,1s1.4,1.34,2,1.78.67,1.23,1.52,1.51a1.8,1.8,0,0,0,1.23-.09,1.84,1.84,0,0,1,.86-.15,3,3,0,0,1,1.45.52c.62.36-.43,1.13-.55,1.34s.84.84,1,.91a34.06,34.06,0,0,0,.82-4.32c.1-.61-.76-1.31-1-2.09s.68-.62,1-.78-.8-.83-.79-1.25.12-.47.81-.49a6.11,6.11,0,0,0,2.43-.41,1,1,0,0,0,.47-.53" fill="#d1d3d4"/>
    <path d="M121.64,106.08c-.12.3,2.56,1.68,3,2a1,1,0,0,0,1.11-.12c.15-.08.78.28,1.33.6a.67.67,0,0,0-.07.48c.08.22.4,1,.19,1.13a5,5,0,0,1-2.82,2.53c-2,.55-1.79,1.32-1.89,1.55a4.28,4.28,0,0,0-.42,1.06c0,.2-.29,1-.59,1a.94.94,0,0,1-.71-.47c-.18-.3-.61-.64-.8-.59s-.77.35-.68-.11.54-.43.42-.7a.81.81,0,0,1,.17-.89c.24-.29.52-.55.27-.7s-1.39-.57-1.3-.91.39-.67.18-1.23.55-1.87.8-2.17.16-1,.45-1.32,1-.29,1.12-.51a5,5,0,0,0,.22-.56" fill="#d1d3d4"/>
    <path d="M149.67,100.74c-.12-.29-.7-.72-1.05-1.11s.41-1.38,1.06-1.52-.08-1.21.08-1.42,1-.71,1.11-.95l.17.08a9.67,9.67,0,0,1,1.1.74,2.55,2.55,0,0,1,.67,1.13,1.05,1.05,0,0,0,.7.63,3.51,3.51,0,0,1,.68.65,1.74,1.74,0,0,0,.63.27.94.94,0,0,1,0,.76c-.18.33-.14.87-.31.88s-.7-.09-.84.8.14,1.75.48,1.78.4.16.74.81,1,1.48.72,1.39a5.56,5.56,0,0,0-2.77.94c-.56.54-1.63-.33-1.75-.61s-.31-1.07-.42-1.5a3.6,3.6,0,0,1,.36-1.68c.13-.19.06-1-.2-1s-.52-.21-.43-.46a.57.57,0,0,0-.28-.76c-.35-.15-.41.13-.41.13Z" fill="#d1d3d4"/>
    <path d="M159.7,99.74s-1.68-.35-2.07-.35-.77,0-.79.17-.19.07-.58,0-1.07-.11-1.07-.11H155a.83.83,0,0,1-.13.54c-.18.32-.14.87-.31.88s-.7-.09-.84.8.14,1.75.48,1.78.4.16.74.81a8.24,8.24,0,0,0,.87,1.34s.83.27.94.16,0-.47-.23-.61.13-.45.24-.4.66.18.78,0a.69.69,0,0,1,.76-.07c.24.16.58.45.77.13s.5-.65.37-.85a.35.35,0,0,1,0-.47c.12-.17.31-.4.08-.65s-.78-1.41-.51-1.93.75-.83.68-1.21" fill="#d1d3d4"/>
    <path d="M163.2,101.68s-.17,0-.6-.38a6.73,6.73,0,0,0-1.72-1.17c-.31,0-.75-.39-1-.39h-.22c.07.38-.38.7-.68,1.21s.51,1.93.51,1.93c.23.25,0,.49-.08.65a.35.35,0,0,0,0,.47c.13.21-.18.53-.37.85,0,0-.29.16,0,.29s.3.21.53.1.25-.21.8-.1,1.31.14,1.47-.32,1.29-2.36,1.33-2.56a3.33,3.33,0,0,0,.05-.59" fill="#d1d3d4"/>
    <path d="M130.21,118.61s-1.33.88-.19,2.61,2,2.55,2.92,2.45,1.39-.91,1.56-.61-.16,2.49.38,2.38,1-.19,1.21.25a5.86,5.86,0,0,1,.73,2.49c0,.89-.17,2-.22,2.28s-.28.51-.35.77.19,1-.06.84-.95-.25-.86.38a1.24,1.24,0,0,0,.74,1.05c.33.14.78.51.58.77s-.91.65-.84,1-.24,1.86-.8,1.58-1.36-.35-1.88-1.47-4.35-2.15-5.4-3.12-2-1.91-1.89-2.53c0,0,.17-.56-.78-2.13s-2.94-6-3.35-6.55a6.14,6.14,0,0,1-.68-1.14s-.23-1-1-1.27-1.62-.83-1.44-1.28a2.13,2.13,0,0,0-.17-1.68.92.92,0,0,1,.29-1.2,8.46,8.46,0,0,1,.82-.63l.12,0a.7.7,0,0,0,.08.6c.12.28-.34.25-.42.7s.48.16.68.11.62.28.8.59a.94.94,0,0,0,.71.47c.3.06.61-.77.59-1a4.28,4.28,0,0,1,.42-1.06c.1-.23-.09-1,1.89-1.55a5,5,0,0,0,2.82-2.53c.21-.16-.11-.91-.19-1.13s.05-.3.05-.3l.37,0,.42.22c.43.2,1.4,1.34,2.05,1.78s.67,1.23,1.52,1.51a1.8,1.8,0,0,0,1.23-.09,1.84,1.84,0,0,1,.86-.15,3,3,0,0,1,1.45.52c.62.36-.43,1.13-.55,1.34s.84.84,1,.91c0,0,.09.32-.34.27s-.79-.3-1.13.05-2.67.58-3,1.6-.27,1.79-.49,1.85l-.22.06" fill="#d1d3d4"/>
    <path d="M136.48,125.34a3.22,3.22,0,0,0,2.16-.48c1.14-.69,3.32-1.91,3.85-1.34s-.85,2.82,1,3.64a27.26,27.26,0,0,1,3.93,1.81c.24.33.23.39.46.41a2.68,2.68,0,0,1,1.35.14c.51.27.69-.08.71.52s.31,1.15.26,1.46a12.58,12.58,0,0,0,.11,1.41c0,.4,0,.83,1.11.85s1.93-.32,1.75.3a1.38,1.38,0,0,0,.44,1.55,1.71,1.71,0,0,1,.5,2c-.32,1-.68,1.86-.83,1.78s-1.26-1-2-.91a18.55,18.55,0,0,0-2.91.6,3,3,0,0,0-1.13,1.71c0,.36-.13,2.11-.58,2.05s-1.85-.24-2,0-3-.14-3.43,0-1,1.2-1.33,1.22-1.24.16-1.26-.06-.84-3-1-3.65.23-1.18-.27-1.85-1.09-2.17-1.29-2.46-.44-1-.2-1.07.48-.66.78-.72,1.32-.22.75-.88-1.09-1.28-1.09-1.28a2.63,2.63,0,0,1-.06-.88c0-.25.24-.44.31-.6a14.85,14.85,0,0,0,.26-2.45,3.93,3.93,0,0,0-.4-1.77,4.54,4.54,0,0,1-.37-.78c-.09-.26-.06-.38.43-.28" fill="#d1d3d4"/>
    <path d="M157.86,150.61c-.33.25-.67.83-1.06.78s-.39.3-1.45.15a11.31,11.31,0,0,1-2.41-.44c-.17-.17.33-1.35.73-2s.46-1.26.23-1.39-2.81-1.26-4.13-2-3.31-2.3-3.1-2.75a5.85,5.85,0,0,0,.5-2.23,2.51,2.51,0,0,1,1.3-1.79,11.43,11.43,0,0,1,3.31-.49c.49.16,1.85,1,1.8,1.29a9.65,9.65,0,0,1,.08,2.34c-.22.71,1.18,1.12,1.61,1s1.72-.32,1.88.64.09,2,1,2,1.12,0,1.06.52-.38,2.47-.53,3.1a3.37,3.37,0,0,1-.83,1.29" fill="#d1d3d4"/>
    <path d="M136.13,196.33a2.58,2.58,0,0,0,1.17,1c.85.38.81,1.62,1.8,2.34a6.85,6.85,0,0,0,3.22,1.46c1.07.08,2.08-.27,1.85.12s-1.87.37-2.36.58-3,1.76-3.34,1.49a1.34,1.34,0,0,0-1-.32,1.28,1.28,0,0,1-1.15-.7,27.56,27.56,0,0,1-1.18-4.5c0-.15-.17-.54,0-.82a2.51,2.51,0,0,1,.93-.63" fill="#d1d3d4"/>
    <path d="M134.92,137.08c.09-.28.21-.09.49-.4s.35-1.2.51-.92l1.64,3.14a10.41,10.41,0,0,0,.47,2.87c.45,1.17.45,2.29.68,2.34s.92-.15,1,.08-.26,1.64-.69,1.79a1.43,1.43,0,0,0-1.27,1.42c-.13,1.21.21,3.24,0,3.38a14,14,0,0,0-2.14,4c-.47,1.56-1.43,3.42-.31,5.56s.06,2.23-.2,2.79-.18,2.24-.32,2.52-1.28,1.66-1.19,2.6.68,2.23.28,2.38a4.43,4.43,0,0,0-1.35,3c-.1,1.42.47,2.68.07,2.89a1.23,1.23,0,0,0-.36,1.61c.39.59,1.26,2.64.73,3.09s-.57,5.57-1.09,6.73-2.41,3.51-1.67,4.69,1.74.17,1.63,1a1.78,1.78,0,0,0,1.73,2.16c1.48,0,2.85.25,2.63.55s-1.1.25-1,1.09.82,4.74,1.63,5.34c1,.7-.77.11-.87,0s-6-2.77-7.15-4.69-.65-4-1.12-4.45-.89-3.44-.75-4.08.15-2.15.5-2.28,1.68-.47,1.44-.92a2.22,2.22,0,0,0-1.36-.79c-.46-.14.11-.73.41-1.35s1-1.8.76-2.27-.47-.42-.17-1,.32-1.23,1.22-1.24a1.79,1.79,0,0,0,1.45-2.2,1.36,1.36,0,0,0-1.08-1.61c-1.35-.32-.37-2.71,0-3.25a2.1,2.1,0,0,0,.06-2.31c-.52-1.23-.44-2.32-.15-2.33s1.37-2.16,2.14-4.37,1.41-4.11,1.19-4.66-.71-2.06-.4-2.57a2.76,2.76,0,0,0,.4-1.89c-.11-.77.93-4.17,1.13-5.91s.58-2.64.34-3.19-.39-.54-.3-.76a5.42,5.42,0,0,0,.56-1.24c.06-.46.09-1.5.14-2.58s-.3-3.43-.21-3.71" fill="#d1d3d4"/>
    <path d="M153.07,161.9a7.3,7.3,0,0,0,.82.84c.26.18.84.09,1.12.19s.74.8,1.51.59,1.89.07,2.39-.12,1.6-1.56,1.45-1.7-.1-.64,0-1,.62-.64.62-.64l-.1-.12a15.85,15.85,0,0,1-2.19-2c-.28-.29-1.88-.8-2.06-1.05a2.32,2.32,0,0,0-1.68-.83c-.75,0-.61-.23-.61-.23a3.23,3.23,0,0,0-.52.79c0,.24-.58,3.25-.61,3.48s-.19,1.46-.2,1.55a.54.54,0,0,0,.09.25" fill="#d1d3d4"/>
    <path d="M136.47,196.06s.59.13.89.22-.59-1.47-.78-2.43A1.72,1.72,0,0,1,138,192c.66-.16.85-1,1-1.84s1.21-1.62,1.72-2.06a3.84,3.84,0,0,0,1.08-1.65c.07-.38-1.13-.57-1.86-.83s-.76-2.15-.56-2.73,2.35-1,2.55-1.18.14-.5.53-.66,0-1.36,0-2,1.8-1.35,1.8-1.35,1-.25,1-.81-.52-.46-1.18-.42-1,.07-1.12-.57-.38-2.34,1-1.63a3.14,3.14,0,0,0,3,0c.57-.27.45-1.67.34-2.8s.11-.82.89-.56,4.27-.72,5.29-1,1.92-2.37,2.16-3.05-.36-.25-.77-.72-.21-.83,0-1.31-1.08-1.19-1.64-1.51.51-5.75.68-6.64a1.71,1.71,0,0,1,.35-.64l.19-.23a31.61,31.61,0,0,1,4.92-4.52,2.05,2.05,0,0,0,.94-2.58c-.17-.69-1-.54-1-.54l-.28.09-.2,1a3.37,3.37,0,0,1-.83,1.29c-.33.25-.67.83-1.06.77s-.39.3-1.45.15a11.31,11.31,0,0,1-2.41-.44c-.17-.17.33-1.35.73-2s.46-1.26.23-1.39-2.81-1.26-4.13-2-3.31-2.3-3.1-2.75l-.08-.18c-.45-.06-1.85-.24-2,0s-3-.14-3.43,0-1,1.2-1.33,1.22l-.17.12c.07.23-.26,1.64-.69,1.79a1.43,1.43,0,0,0-1.27,1.42c-.13,1.21.21,3.24-.05,3.38a14,14,0,0,0-2.14,4c-.47,1.56-1.43,3.42-.31,5.56s.06,2.23-.2,2.79-.18,2.24-.32,2.52-1.28,1.66-1.19,2.6.68,2.23.28,2.38a4.43,4.43,0,0,0-1.35,3c-.1,1.42.47,2.68.07,2.89a1.23,1.23,0,0,0-.36,1.61c.39.59,1.26,2.64.73,3.09s-.57,5.57-1.09,6.73-2.41,3.51-1.67,4.69,1.74.17,1.63,1a1.78,1.78,0,0,0,1.73,2.16,8.9,8.9,0,0,1,2.37.27Z" fill="#d1d3d4"/>
    <path d="M163.48,101.83h0Z" fill="#d1d3d4"/>
    <path d="M164.14,109.74c-.05.24.26.57,0,.71l2.12.16a2.42,2.42,0,0,0,1-.45c.51-.48-.42-1.17-1-1.27s-2,.43-2.11.85" fill="#d1d3d4"/>
    <path d="M188.7,118.22a11.23,11.23,0,0,0-.9-2,2.62,2.62,0,0,0-1.08-.09,3.81,3.81,0,0,1-2.37-1.06c-.65-.64-3-2.39-3.7-2.36a9.3,9.3,0,0,1-3.68-.3c-1.08-.5-1.47-.65-1.69-.41s-.66.64-.94.51-.16-1-.26-1.23,0-.66-.56-.71a16.51,16.51,0,0,1-2.81-.85,5,5,0,0,0-1.6-.36c-.2,0-.33,1.85-2.19,1.8-.6,0-1.11,0-1.49,0-.54,0-.82,0-.7,0a2.19,2.19,0,0,1-1.06-.71,2.52,2.52,0,0,1,.54-2.17c.57-.54.65-1,1.14-1.28s1-.89.27-1.12a1.78,1.78,0,0,1-1.33-1.57c-.17-.87-.47-2.37-.73-2.46a.79.79,0,0,0-.25.21c-.16.19-.16.24-.16.24,0,.21-1.17,2.1-1.33,2.56s-.93.44-1.47.32-.57,0-.8.1-.27,0-.53-.1l-.19-.11-.14-.07a2.85,2.85,0,0,1-.4-.24.69.69,0,0,0-.76.07c-.12.14-.67,0-.78,0s-.49.27-.24.4.33.49.23.61-.94-.15-.94-.15l-.2,0a6.57,6.57,0,0,0-2.72,1c-.56.55-1.63-.33-1.75-.61s-.31-1.07-.42-1.5a3.48,3.48,0,0,1,.36-1.68c.13-.19.06-1-.2-1s-.52-.21-.43-.46a.57.57,0,0,0-.28-.76c-.35-.15-.41.13-.41.13l-.08.06v.16a5.83,5.83,0,0,1-1.49,1,15.51,15.51,0,0,0-1.81,1c-.19.12-.37,0-.58-.12a.93.93,0,0,0-.57-.16,2.13,2.13,0,0,1-.73-.15c-.49-.15-.94-.31-.72.15.35.72.6,2.28,1.56,2.39s-.58,1.07-1.47,1.43-2.06,1.33-2.44,1.16a8.23,8.23,0,0,1-2.13-2.4c-.09-.22-.43.19-.54.27a5.86,5.86,0,0,1-2.43.42c-.69,0-.8.06-.81.49s1.16,1.09.79,1.25-1.28,0-1,.78,1.09,1.47,1,2.09a34.06,34.06,0,0,1-.82,4.32s.09.32-.34.27-.79-.3-1.13.05-2.67.58-3,1.6-.27,1.79-.49,1.85l-.22.06s-1.33.88-.19,2.61,2,2.55,2.92,2.45,1.39-.92,1.56-.61-.16,2.49.38,2.38,1-.19,1.21.25l0-.06c-.09-.26-.06-.38.43-.28a3.22,3.22,0,0,0,2.16-.48c1.14-.69,3.32-1.91,3.85-1.34s-.85,2.82,1,3.64a27.37,27.37,0,0,1,3.93,1.81c.24.33.23.39.46.41h.27a1.94,1.94,0,0,1,1.08.15c.51.27.69-.08.71.52s.31,1.15.26,1.46a12.61,12.61,0,0,0,.11,1.41c0,.4,0,.83,1.11.85a7.88,7.88,0,0,0,.83,0c.65-.06,1-.11.92.34a1.38,1.38,0,0,0,.44,1.55,1.71,1.71,0,0,1,.5,2c-.32,1-.68,1.86-.83,1.78l.33.41a9.66,9.66,0,0,1,.08,2.34c-.22.71,1.18,1.12,1.61,1s1.72-.32,1.88.64.09,2,1,2,1.12,0,1.06.52c0,.31-.18,1.25-.33,2l.28-.09s.83-.16,1,.54a2.05,2.05,0,0,1-.94,2.58,31.61,31.61,0,0,0-4.92,4.52s-.14.27.61.24a2.33,2.33,0,0,1,1.68.83c.18.25,1.78.76,2.06,1.05a16.11,16.11,0,0,0,2.19,2,.51.51,0,0,0,.33-.08c.28-.23.54-.47.73-.09s2.49-1.81,3-2.9a11.16,11.16,0,0,1,2.61-3.6c.79-.47.18-2.59.3-3.47a7.93,7.93,0,0,1,4.67-4.65,26.7,26.7,0,0,1,5.26-1.09c.44-.21.22-.94.7-1.06s1.11,0,1.12-.38a6.63,6.63,0,0,1,1-2.44c.54-.75,1-1.2,1-1.66s-.21-1.57.25-2.15.81-3.1.8-4.39.07-1.66.06-2.12-.18-1,.07-1.1,3.4-3.65,3.64-4,2-2.24,2.22-3.13a7.71,7.71,0,0,0,.1-3.4" fill="#d1d3d4"/>
    <polygon points="163.55 101.81 163.56 101.81 163.58 101.81 163.55 101.81" fill="#d1d3d4"/>
    <path d="M123.39,97.26s-.86-.55-.84-.84a1.27,1.27,0,0,0-.2-.89,5.71,5.71,0,0,0-1.45-.89c-.16,0-.24.84-.51.92s-.94.42-.89.6.76.87.37,1.11-.87.49-1.14.26-.47-.63-.8-.86A5.46,5.46,0,0,0,116.3,96l-.66-.09a4,4,0,0,0,.21-1c-.07-.37-.32-.52-.23-.68s.57,0,.52-.2,0-.1.24.07.17.56.37.72a2.61,2.61,0,0,0,1.06.24,5.84,5.84,0,0,0,1.87-.56,2.57,2.57,0,0,1,1.41-.62,4.53,4.53,0,0,1,2.35.76c.5.47.75.65.7.69v.3a5.32,5.32,0,0,0-.77,1.66" fill="#d1d3d4"/>
    <path d="M115.64,95.9a2.63,2.63,0,0,0,.21-1c0-.23-.32-.52-.23-.68s.57,0,.52-.2v-.15A8.84,8.84,0,0,1,115,92.8c-.16-.27-.33-.68-.39-.72s-.13,0-.26,0a.75.75,0,0,1-.5,0c-.25-.13-.7-.58-1-.36s-.83-.16-1.06-.19a.7.7,0,0,0-.54.17c-.08.09-.17.11,0,.27s.32.37,0,.59,0,.55.44.82.81.49.91.29.17-.08.61.33,1.2.38,1.28.57-.29.81.15,1a3.58,3.58,0,0,0,1,.27h0" fill="#d1d3d4"/>
    <path d="M112.61,85.9c.24-.22.32,0,.54.11s1.14-.3,1.39-.42a1.34,1.34,0,0,1,.65-.18c.13,0,0,.47,0,.89a3.58,3.58,0,0,1-.44,1.18,8,8,0,0,0,0,1.79A3.94,3.94,0,0,1,114.3,91c-.26.26.31,1.07.31,1.07s-.13,0-.26,0a.75.75,0,0,1-.5,0c-.25-.13-.7-.58-1-.36s-.83-.16-1.06-.19a.94.94,0,0,0-.44.09l-.6-.65c-.24-.23-.88-1-1-1.17a9.16,9.16,0,0,1-1.16-1.14c-.06-.19.58-.13,1-.19,0,0,.77-.87,1.1-1.18s1.88-1.29,2.05-1.45" fill="#d1d3d4"/>
    <path d="M115.18,85.42a1.34,1.34,0,0,0-.65.18c-.25.12-1.17.58-1.39.42s-.3-.33-.54-.11-1.73,1.13-2.05,1.44-1.1,1.18-1.1,1.18c-.19,0-.44,0-.64,0,0,0,.23-.34-.17-.41s-.26-.36-.32-.61-1.14-.14-1.63-.66-.76-.4-.7-.59a1.71,1.71,0,0,0,.07-.75c0-.34,1.36-1.15,1.66-1.34s.44-.46.93-.27a5.84,5.84,0,0,0,2.47-.09,17.76,17.76,0,0,1,2.51.36c.54.07,0,.46.77.46a.78.78,0,0,1,.78.74" fill="#d1d3d4"/>
    <path d="M106,86.31c-.06.19.21.08.7.59s1.57.41,1.63.66c0,0-.16.85-.39.83a8,8,0,0,1-1.62-.28c-.31-.15-1.26-.44-1.44-.53s.08-.37.23-.53a1.39,1.39,0,0,0,.36-.66c0-.21.53-.08.53-.08" fill="#d1d3d4"/>
    <path d="M103.19,87.19a7.18,7.18,0,0,1-1.75-.92c-.2-.09-.06-.11.2-.56s-.28-.41,0-1a1.59,1.59,0,0,1,1.46-1c.62,0,.19-1.64.19-1.64s.09-1,.09-1.13a17.79,17.79,0,0,1,2.73,0s-.07,2.78,0,3,.28.12.53.12a1.79,1.79,0,0,0,.58-.12c.21-.06.37.45.37.45-.3.18-1.5.84-1.46,1.18a1.71,1.71,0,0,1-.07.75s-.5-.13-.53.08-.71,1-.64,1.15-1.33-.31-1.63-.35" fill="#d1d3d4"/>
    <path d="M107.76,80.2a10.14,10.14,0,0,1-.29,2.43c-.26.56-.66,1.47-.88,1.42s-.52.25-.53-.12a17.68,17.68,0,0,1,0-3c.15-.26,1-1.14,1.34-1Z" fill="#d1d3d4"/>
    <path d="M109.74,75a2.93,2.93,0,0,1-.27,1.24,2.56,2.56,0,0,0-.72,1.34c0,.55-.09,1.73-.43,2a2.2,2.2,0,0,1-.9.38,2.54,2.54,0,0,0-1.34.95h-2.73a10.2,10.2,0,0,0,0,1.43c.06.36.27,1.24-.26,1.34a2.33,2.33,0,0,0-1.31.72,1,1,0,0,0-.11.79c.07.29-.29.84-.29.84s-1.12-1.07-2-1.85a2.78,2.78,0,0,0-3.57,0c-1.34.92-7.21-2.36-8.32-2.91s-2.54-.66-2.93-1a8.27,8.27,0,0,0-2.21-1.66,2,2,0,0,1-1.25-2c.15-.39.85-.59,0-2.3s-1.28-2.79-3-3.83-1.21-1.34-2-1.73-.86-.33-.73-1.05-.85-1.42-1.67-1.95a14.86,14.86,0,0,1-2.84-3.54c-.6-1-1.17-3-1.31-3.1s-2.18-1-2.26-.23-.19,2,.28,2.38a9.92,9.92,0,0,1,2.47,2.74c.28.85,2.31,3.2,2.56,3.88s1,2.87,1.15,2.79,1.8,1.09,1.31,1.61-.36.6-.93,0S71.25,70,70.92,69.69s.88-1.2,0-2-4.47-2.26-4.2-2.85,2.45.47.75-2c-.91-1.34-1.54-.88-1.78-1.62s-1.13-2.1-1.32-2.7a10.44,10.44,0,0,0-.82-1.62H67.3L72.63,59l4.34,0s-.12-.7.14-.73a12.51,12.51,0,0,1,2.6,0c.19.15,2.77,2.32,3,3s1.6,1.78,2.06,1.35.93-1.33,1.84-1.17a2.16,2.16,0,0,1,2,1.33,25.2,25.2,0,0,0,2.4,4.5,5.2,5.2,0,0,0,2.52.89c.42-.14.67.49.32.86a10,10,0,0,0-.71,5.17c.28,2.14,2.3,4.45,2.93,5A7.13,7.13,0,0,0,100,80c1-.16,1-.54,1.37-.49s1.24.21,1.44-.14,1.33-1.24,1.32-1.87-.24-1.71.7-1.92,1.48-.41,2.07-.53,2.66-.52,2.85,0" fill="#d1d3d4"/>
    <path d="M129,77.16c0,.42-4.18.84-5.07.56s.06-.52.44-.77.54-.67-.34-.62a2,2,0,0,1-1.27-.27c-.42-.36-.27-1-1.64-1.06s-2-1-2.61-.9-1.35.38-1.55-.26-1.39-.58-1.55-.33a5,5,0,0,1-2.26,1.18c-.45-.1-.73-.3-.37-.46s1.72-1.53,2.63-1.66a16.62,16.62,0,0,1,3.05,0c.86.06,1.26-.15,1.9.39a2.83,2.83,0,0,0,2.1.86c1.06,0,2.09,1.42,2.77,1.54a4,4,0,0,1,1.9.91c.4.4,1.91.2,1.87.94" fill="#d1d3d4"/>
    <path d="M132.61,77.81a10,10,0,0,1,0,2.8s-1.12,0-1.52-.11-2.54.18-2.46-.68,2.62.22,2.54-.4c0,0-.43-.54-.37-.78s0-.65-.6-.6-.25-.48.6-.55a4.7,4.7,0,0,1,1.82.32" fill="#d1d3d4"/>
    <path d="M137.74,79.8c-.07.1,0,1-.28.75a3.42,3.42,0,0,0-1.42-.61,12,12,0,0,0-1.45.34c-.15,0-.74-.2-1,.26s-.1,1-.42.87-.55-.8-.55-.8a13.38,13.38,0,0,0,0-2.8c-.18-.55,1.38-.16,1.65-.06s1.19,0,1.23.33,1.23.17,1.1.37-.28.48.64.72.51.64.51.64" fill="#d1d3d4"/>
    <path d="M127,108.48l-.06,0-.68-.38a32.15,32.15,0,0,0-2.71-4.65,2.12,2.12,0,0,0,.27-.48,32.54,32.54,0,0,1,3.18,5.54" fill="#d1d3d4"/>
    <path d="M127.2,110.15c-.27-.7-.57-1.4-.89-2.08l.68.38.06,0,0,.07a.62.62,0,0,0-.07.28.35.35,0,0,0,0,.17,3.49,3.49,0,0,1,.26.93.23.23,0,0,1-.07.2l0,0" fill="#d1d3d4"/>
    <path d="M127.95,132.4a2.12,2.12,0,0,1-.22-.18l-.18-.16a31.72,31.72,0,0,0-.35-21.9l0,0a.23.23,0,0,0,.07-.2A3.49,3.49,0,0,0,127,109a.35.35,0,0,1,0-.17.18.18,0,0,1,.07-.13h.06a31.56,31.56,0,0,1,2.6,10.46,1.58,1.58,0,0,0-.18.73,2.19,2.19,0,0,0,.26,1c0,.23,0,.46,0,.69a31.85,31.85,0,0,1-1.88,10.83" fill="#d1d3d4"/>
    <path d="M129.82,120.88a2.19,2.19,0,0,1-.26-1,1.58,1.58,0,0,1,.18-.73c0,.57.07,1.14.08,1.72" fill="#d1d3d4"/>
    <path d="M119,97.62a.39.39,0,0,1-.27-.09c-.28-.23-.47-.63-.8-.86A5.46,5.46,0,0,0,116.3,96h0l-.53-.38a2.62,2.62,0,0,0,.11-.53,32.21,32.21,0,0,1,3.22,2.52H119" fill="#d1d3d4"/>
    <path d="M115.74,95.62c-.42-.29-.86-.58-1.3-.85a.28.28,0,0,0,0-.14c0-.11-.31-.15-.6-.24l-.82-.47c-.2-.19-.3-.28-.36-.28a.09.09,0,0,0-.07,0q-.73-.39-1.49-.74a.23.23,0,0,1,.11-.32.6.6,0,0,0,.14-.12,32,32,0,0,1,4.52,2.59,2.62,2.62,0,0,1-.11.53" fill="#d1d3d4"/>
    <path d="M182.62,131.36a29.33,29.33,0,0,1-.51-18l.43.29a28.95,28.95,0,0,0,.13,16.25c0,.35,0,.68,0,1.44m-8,13.17a42.22,42.22,0,0,1-6.75-23,43.29,43.29,0,0,1,1.63-12.17l.49.1a42.87,42.87,0,0,0-1.62,12.06,41.69,41.69,0,0,0,6.78,22.86l-.53.1" fill="#d1d3d4"/>
  </g>
</svg>
